<?xml version="1.0" encoding="utf-8"?>
<!-- Generator: Adobe Illustrator 26.0.1, SVG Export Plug-In . SVG Version: 6.00 Build 0)  -->
<svg version="1.1" id="Layer_1" xmlns="http://www.w3.org/2000/svg" xmlns:xlink="http://www.w3.org/1999/xlink" x="0px" y="0px"
	 viewBox="0 0 1077.17 1077.17" style="enable-background:new 0 0 1077.17 1077.17;" xml:space="preserve">
<style type="text/css">
	.st0{fill:#3a5b39;}
	.st1{fill:none;}
	.st2{font-family:'MyriadPro-Regular';}
	.st3{font-size:19.886px;}
</style>
<path class="st0" d="M23.97,538.99C24.58,250.03,259.12,25.06,537.09,24.32c278.31-0.74,514.36,223.18,515.76,511.86
	c1.38,285.21-228.52,515.69-512.47,516.99C261.17,1054.45,24.85,829.01,23.97,538.99z M1021.77,538.79
	C1020.7,266.29,799.88,55.9,538.99,55.64C277.55,55.38,54.98,266.19,55.47,539.73c0.49,271.98,221.79,481.93,482.54,482.19
	C799.72,1022.18,1020.72,811.28,1021.77,538.79z"/>
<g>
	<path class="st0" d="M305.7,451.81c4.09,5.34,9.5,10.18,11.83,16.2c1.57,4.08,5.47,7.92,4.25,13.04c-0.05,0.21,0.04,0.62,0.2,0.71
		c4.05,2.34,3.41,6.89,4.44,10.41c1.43,4.88,1.48,10.16,2.18,15.27c0.34,2.51,1.05,4.99,1.13,7.5c0.1,2.88-0.34,5.77-0.48,8.66
		c-0.09,1.84-0.69,4,0.04,5.46c1.36,2.72,0.27,4.8-0.46,7.21c-0.36,1.18,0.33,2.65,0.14,3.93c-1.62,10.92-3.12,21.86-9.02,31.58
		c-3.42,5.64-6.17,11.73-10.01,17.05c-3.11,4.32-7.22,7.96-11.18,11.59c-3.84,3.53-7.84,6.95-12.14,9.88
		c-3.25,2.21-7.22,3.33-10.61,5.37c-5.17,3.11-10.77,4.81-16.64,5.34c-6.1,0.55-12.26,0.44-18.39,0.65
		c-6.4,0.22-12.8,0.63-19.21,0.67c-7.34,0.05-14.67-0.26-22.01-0.3c-2.43-0.01-4.88,0.52-7.3,0.45c-4.1-0.13-8.19-0.58-12.29-0.81
		c-2.13-0.12-4.28-0.1-6.42-0.05c-8.05,0.21-16.09,0.46-24.14,0.7c-3,0.09-5.43-0.92-6.75-3.74c-1.1-2.35-2.28-4.81,0.34-7.03
		c0.41,1.2,0.81,2.41,1.15,3.45c2.63-1.4,4.81-2.44,6.85-3.7c0.73-0.45,1.13-1.42,1.68-2.15c-0.78-0.53-1.5-1.34-2.36-1.54
		c-3.61-0.85-5.6,1.5-7.42,4.05c0.1-2.05,0.19-4.11,0.28-5.84c1.6-0.66,3.03-1.26,4.87-2.02c-0.87-0.63-1.32-1.23-1.65-1.16
		c-6.26,1.17-3.48-4.02-3.87-6.17c-0.68-3.72-0.21-7.65-0.08-11.49c0.02-0.76,0.66-1.5,1.27-2.82c0.2,1.66,0.31,2.67,0.45,3.86
		c0.19-0.23,0.32-0.33,0.36-0.45c2.08-6.74,4.11-13.5,6.25-20.23c0.58-1.83,2.57-3.44,0.03-5.41c-0.51-0.39-0.07-2-0.07-3.13
		c-2.22,2.03-4.27,3.92-6.95,6.38c-0.28-4.17-0.52-7.69-0.74-10.87c2.63-0.77,4.89-1.27,6.99-2.15c0.75-0.32,1.11-1.57,1.64-2.4
		c-0.95-0.48-2.02-1.51-2.84-1.35c-1.92,0.39-3.72,1.35-5.59,2.09c-1.93-3.66-1.29-5.27,2.53-7.37c-0.93-1.57-1.87-3.04-2.57-4.62
		c-0.05-0.11,1.67-1.01,2.79-1.68c-3.44-1.93-4.15-5-1.78-7.74c1.39-0.54,3.54-0.7,4.04-1.69c2.52-5.03,7.78-3.54,12.76-5.87
		c-2.37-1.2-4.08-2.07-5.24-2.66c-0.4-4.12-0.8-8.18-1.2-12.24c-0.31,0.01-0.61,0.01-0.92,0.02c-0.16,0.91-0.31,1.83-0.47,2.74
		c-1.18-0.5-2.37-1-3.2-1.35c0.84,3.63,1.72,7.43,2.56,11.04c-2.93,1.8-5.71,3.5-8.58,5.26c-1.42-1.73-2.94-3.61,0.25-4.71
		c-0.8-2.08-1.54-4.03-2.29-5.99c0.21-0.16,0.42-0.32,0.64-0.48c0.87,0.62,1.74,1.24,2.69,1.92c0.1-1.54,0.19-3.05,0.29-4.57
		c-0.38,0.12-0.75,0.25-1.13,0.37c-0.42-1.04-0.89-2.05-1.22-3.12c-0.07-0.24,0.57-0.64,0.55-0.96c-0.08-2.06-1.16-5.09-0.21-5.96
		c2-1.83,5.04-2.53,7.65-3.7c-0.35,1.06-0.7,2.12-1.08,3.27c1.55-0.57,2.91-1.1,4.29-1.57c1.27-0.42,2.56-0.77,3.84-1.15
		c-0.17-0.34-0.34-0.68-0.51-1.02c-1.93-0.14-4.29,2.83-5.74-0.79c2.01-2.37,4.03-4.75,5.88-6.93c-0.21-3.16-0.46-6.5-0.58-9.83
		c-0.01-0.2,0.97-0.43,1.5-0.65c-0.07,0.5-0.29,1.03-0.18,1.49c0.37,1.56,0.85,3.09,1.29,4.63c2.1-0.65,4.21-1.3,6.31-1.95
		c-0.51-0.87-0.99-2.48-1.53-2.5c-3.44-0.15-2.58-1.83-1.1-4.05c-1.98,1-3.44,1.74-4.91,2.48c0.01-3.01,0.16-6.02,0-9.02
		c-0.16-2.96-0.62-5.91-1.37-8.89c0,4.89,0,9.78,0,14.68c-0.3-0.01-0.6-0.01-0.89-0.02c0-5.46-0.56-11,0.27-16.33
		c0.34-2.17-0.3-3.9-0.22-5.83c0.15-3.47,0.45-6.94-0.18-10.42c0,6.92,0,13.84,0,20.75c-0.35,0.07-0.69,0.15-1.04,0.22
		c-1-1.74-2-3.49-2.88-5.03c0,10.49,0,21.1,0,31.86c-2.67,1.53-5.85,3.34-10.03,5.72c0.58-1.86,1.05-3.25,1.44-4.67
		c0.25-0.92,0.84-2.12,0.49-2.77c-2.2-4.08-2.89-7.95,0.25-11.95c0.46-0.59,0.03-2.02-0.2-3c-0.46-1.9-1.07-3.77-1.62-5.65
		c0.33-0.11,0.66-0.23,0.98-0.34c1.01,2.22,2.03,4.44,3.04,6.66c0.42-0.03,0.85-0.05,1.27-0.08c0-6.73,0-13.46,0-20.79
		c-1.3,3.44-2.36,6.23-3.42,9.03c-0.38-0.12-0.76-0.23-1.14-0.35c-0.33-1.09-0.66-2.17-1.05-3.49c0.98-0.5,1.93-0.98,2.86-1.45
		c-5.94-3.1,1.36-6.51-1.22-9.62c0.37-0.04,0.75-0.08,1.12-0.12c0.25,0.6,0.49,1.2,0.74,1.8c0.13-0.03,0.26-0.07,0.38-0.1
		c-0.07-0.83-0.15-2.38-0.2-2.38c-5.68,0.09-2.48-3.93-2.9-6.23c-0.12-0.68-0.15-1.39-0.1-2.08c0.07-1.11,0.25-2.22,1.29-3.21
		c-0.55-2.28-1.1-4.56-1.89-7.84c2.56,0.79,4.16,1.28,6,1.85c-0.86-1.62-1.67-3.15-2.47-4.65c3.52,0.75,6.61,1.42,9.48,2.03
		c1.28-0.46,2.55-0.91,3.83-1.37c0.17,0.31,0.35,0.61,0.52,0.92c0.3-0.78,0.6-1.56,1.08-2.79c1.2,1.54,2.22,2.85,3.1,3.98
		c1.78-1.28,3.74-2.69,5.71-4.1c-0.02,0.39-0.05,0.77-0.07,1.16c1.37,0.31,2.73,0.67,4.12,0.92c1.95,0.35,3.92,0.62,5.88,0.91
		c0.36,0.05,0.93,0.17,1.07-0.01c2.34-2.88,5.55-1.27,8.28-1.32c1.26-0.02,2.56,2.17,3.9,3.4c0.59-0.04,1.6-0.1,2.61-0.2
		c1.99-0.19,5.86-1.87,8.78-3.51c0.41-0.23,1.81,0.42,2,0.93c0.23,0.62-0.35,1.54-0.03,2.65c0.96-1.34,1.93-2.68,3.47-4.82
		c0,3.11,0,5.3,0,7.48c0.54,0.19,1.07,0.37,1.61,0.56c0.88-1.72,1.55-3.61,2.72-5.1c0.76-0.97,2.21-1.5,3.46-1.92
		c0.21-0.07,1.5,1.89,1.35,2.06c-3.11,3.43-1.35,6.65,0.21,9.92c0.09,0.19-0.05,0.49-0.17,1.41c3.31-1.36,6.32-2.6,9.33-3.84
		c-0.06-0.2-0.13-0.39-0.19-0.59c-1.75,0.54-3.5,1.09-6.17,1.91c0.75-4,1.42-7.56,2.1-11.12c0.46,0.06,0.91,0.12,1.37,0.19
		c-0.1,0.8-0.2,1.6-0.43,3.38c5.29-4.82,10.81-2.74,17.28-1.97c-1.81,1.15-3,1.91-4.19,2.67c0.19,0.5,0.38,0.99,0.58,1.49
		c0.89-0.09,2.43-0.47,2.55-0.21c0.76,1.66,1.6,3.48,1.52,5.2c-0.03,0.6-2.59,1.27-4.06,1.5c-0.6,0.1-1.37-0.87-2.54-1.69
		c0.06-0.08-0.91,0.69-0.82,1.31c0.17,1.22,0.84,3.3,1.46,3.37c2.46,0.24,5.75,0.74,7.29-0.56c1.87-1.58,2.46-4.83,3.22-7.47
		c0.31-1.06-0.39-2.41-0.7-3.94c-1.18-0.34-2.73-0.8-5.57-1.63c1.98-0.89,2.97-1.74,3.88-1.66c3.72,0.34,7.45,0.8,11.11,1.53
		c2.88,0.57,5.66,1.61,7.94,2.29c-2.79,2.23-5.71,4.56-8.62,6.9c-0.3,0.24-0.57,0.54-0.83,0.83c-1.98,2.17-2.21,4.6-0.67,7.01
		c0.26,0.41,2.17,0.41,2.63-0.07c1.84-1.92,4.67-3.67,2.77-7.1c3.92-1.45,8.24-3.93,11.31,1.79c0,1.53,0,3.07,0,4.6
		c0.52,0.11,1.04,0.23,1.56,0.34c0.62-1.72,1.24-3.44,2.24-6.23c-2.12,0.77-3.02,1.09-3.92,1.42c0.11-2.45,0.21-4.9,0.34-7.75
		c4.46,2.04,9.52,4.35,14.98,6.85c-0.86,0.58-1.06,0.68-1.23,0.83c-1.22,1.05-2.43,2.11-3.64,3.17c1.31-0.48,2.71-0.79,3.9-1.47
		c2.42-1.38,4.61-1.68,6.64,0.63c2.03,2.32,4.09,4.62,6.66,7.53c1.43-0.04,4.15-0.53,5,3.25c0.27,1.22,1.75,2.16,2.68,3.24
		c-1.49,2.61-2.98,5.21-4.47,7.81c0.54-0.12,1.08-0.25,1.63-0.37c0.77,0.53,1.55,1.07,2.32,1.6c-0.63,0.26-1.65,0.37-1.83,0.81
		c-1.36,3.35-2.6,6.74-3.75,10.17c-0.18,0.55,0.3,1.33,0.49,2.07c3.82-1.9,6.14-8.34,4.98-13.17c0.39-1.77,0.95-3.51,1.11-5.29
		C306.38,454.34,305.91,453.06,305.7,451.81z M223.19,585.28c2.44-1.4,4.96-2.69,7.29-4.25c0.87-0.58,1.4-1.76,1.89-2.76
		c0.09-0.19-0.83-1.25-1.16-1.19c-1.06,0.18-2.44,0.4-3.03,1.13c-1.8,2.26-3.29,4.76-4.88,7.19c-2.17,2.51-4.33,5.03-6.85,7.95
		c2.4-0.75,4.19-1.31,6.15-1.93c-0.88-0.26-1.54-0.47-1.43-0.43C221.88,588.97,222.54,587.13,223.19,585.28z M188.2,582.63
		c-3.14,1.05-1.21,3.73-1.72,5.6c-0.78,2.85-1.18,5.8-1.74,8.71c0.44,0.15,0.88,0.29,1.32,0.44c0.66-1.12,1.82-2.2,1.9-3.36
		c0.26-3.82,0.12-7.67,0.13-11.52c3-2.78,3.06-5.2,0.02-9.93c-1.31,2.64-2.54,5.1-3.76,7.57c0.61-0.07,1.23-0.14,1.84-0.21
		C186.86,580.84,187.53,581.74,188.2,582.63z M226.8,575.94c-0.22-1.07-0.63-1.98-0.5-2.81c0.07-0.41,1.1-0.87,1.74-0.96
		c3.11-0.42,6.32-0.39,9.33-1.16c3.11-0.79,5.95-2.9,9.07-3.34c2.55-0.36,3.9-1.89,5.99-2.95c0.55,0.93,1.25,2.11,2.11,3.55
		c2.18-4.13,4.27-8.07,6.96-13.16c0.16,4.97,0.54,8.93,0.3,12.85c-0.09,1.41-1.46,3.65-2.6,3.9c-3.16,0.69-4.11,3.07-4.18,5.33
		c-0.27,9.28-0.11,18.57-0.11,27.48c0.93-2.84,2.02-6.15,3.1-9.44c1.1-3.32,2.22-6.64,3.3-9.97c1.11-3.4,3.6-7.14,2.92-10.15
		c-0.93-4.1,1.83-6.55,2.04-9.81c0.2-3.26-0.4-6.58-0.71-10.71c-0.72,2.6-1.21,4.36-1.68,6.07c-1.55-4.48-1.99-8.93,0.21-13.44
		c2.18-0.49,1.6-0.4,1.24-2.92c-0.3-2.1,0.92-4.43,1.54-6.64c0.17-0.6,0.64-1.11,0.97-1.67c0.38,0.66,1.06,1.31,1.11,2
		c0.59,8.92,1.08,17.84,1.63,26.76c0.36,5.75,0.77,11.49,1.16,17.24c0.74-2.25,1.03-4.53,1.05-6.81c0.06-11.1-0.94-22.32,0.32-33.27
		c1.6-13.98-0.13-27.04-5.77-39.75c-0.44-0.99-0.95-1.95-1.44-2.92c2.58,7.31,4.49,14.6,4.74,22.39c0.25,7.74,1.1,15.45,1.68,23.18
		c-1.73-7.2-3.02-14.45-3.3-21.75c-0.46-11.85-4.82-21.88-12.74-30.44c-5.84-6.31-12.63-10.66-21.76-10.77
		c-8.57-0.11-17.14-0.89-25.64-1.38c-0.59,30.47-0.54,60.34-0.13,90.11c1.61,0.35,2.87,0.63,3.6,0.79c-0.16,1.34-0.3,2.47-0.44,3.59
		c0.35,0.08,0.71,0.16,1.06,0.24c0.71-1.31,1.43-2.61,2.25-4.13c2,0.34,4.09,0.69,5.85,0.99c-1.95,1.61-3.83,2.95-5.35,4.61
		c-0.29,0.32,0.8,1.9,1.39,3.22c0.84-1.22,1.4-2.04,2.03-2.95c0.27,0.69,0.48,1.25,0.65,1.69c1.04-1.1,2.08-2.21,3.54-3.76
		c0.12,1.83,0.2,2.98,0.29,4.44C224.98,577.86,225.95,576.83,226.8,575.94z M182.46,545.57c0.73-1.27,1.29-2.26,2.54-4.43
		c-3.9,0.84-6.75,1.21-9.43,2.08c-2.85,0.94-4.3,3.08-3.98,6.27c0.36,3.61,0.26,7.28,0.93,10.82c0.4,2.1,1.9,3.99,2.9,5.98
		c1.15-1.59,2.31-3.18,3.48-4.79c0.05,0.09,0.31,0.81,0.79,1.31c1.26,1.3,2.52,3.3,3.97,3.48c1.19,0.14,3.15-1.68,3.88-3.09
		c1.61-3.09,2.81-6.43,3.92-9.75c1.46-4.35,2.04-4.66,5.53-2.24c1.2-1.02,2.41-2.04,4.11-3.49c0.29,2.15,0.47,3.52,0.65,4.89
		c0.85-7.2-4.78-11.83-12.91-10.39c0.36,0.47,0.59,0.93,0.96,1.23c0.83,0.67,1.72,1.27,2.59,1.89c-3.62,1.34-5.83,0.17-5.95-3.16
		c-0.04-1.17,0.17-2.43-0.16-3.51c-0.95-3.04-3.38-3.83-6.2-3.26c-0.91,0.18-1.63,1.32-2.44,2.02c0.19,0.41,0.38,0.82,0.57,1.23
		c3.19-2.51,5.66-1.07,6.71,1.55C185.36,541.28,186.49,544.99,182.46,545.57z M174.96,581.92c-0.5-5.9-2.51-8.01-7.94-8.88
		c-7.46-1.2-15.44,4.23-16.47,11.62c-0.3,2.13-1.68,5.76,2.98,5.85c0.28,0.01,0.73,1.05,0.76,1.62c0.1,1.76,0.04,3.54,0.04,5.94
		c1.95-0.67,4.13-1.6,6.41-2.12c1.25-0.28,2.67,0.13,4.01,0.23c-0.21,1.27-0.43,2.53-0.61,3.8c-0.01,0.1,0.28,0.24,1.04,0.84
		c0.57-4.19,1.08-8.02,1.6-11.84c0.2-0.01,0.4-0.02,0.6-0.02c0.47,1.5,0.93,2.99,1.3,4.17c3.56-3.61,10.89-5.42,7.43-13.07
		C175.92,580.38,175.59,580.91,174.96,581.92z M279.55,578.88c0.34,0,0.68,0.01,1.01,0.01c0.49-7.5,0.87-15.01,1.51-22.5
		c0.87-10.15,1.98-20.27,2.9-30.41c0.09-1.02-0.07-2.78-0.61-3.01c-2.8-1.18-1.93-2.93-1.56-5.1c0.46-2.63,0.11-5.39,0.11-8.67
		c-0.79,1.04-1.27,1.67-1.81,2.4c-0.42-1.48-0.78-2.77-1.15-4.06c-0.14,0.05-0.29,0.1-0.43,0.15c0.42,2.66,0.84,5.32,1.26,7.98
		c-0.17,0.01-0.33,0.02-0.5,0.03c-0.88-2.28-1.75-4.56-2.63-6.84c-0.32,0.12-0.64,0.24-0.96,0.37c1.14,3.08,2.47,6.11,3.33,9.26
		c0.36,1.31-0.08,2.97-0.55,4.34c-0.7,2.04-2.59,4-2.51,5.94C277.65,545.47,278.65,562.17,279.55,578.88z M271.79,500.31
		c0.36-0.26,0.71-0.51,1.07-0.77c-2.26-4.51-4.27-9.18-6.85-13.5c-3.98-6.66-8.58-12.94-12.43-19.67c-1.29-2.25-2.46-3.9-4.86-3.16
		c-1.72,0.53-4.07,1.99-4.38,3.42c-0.37,1.71,0.65,4.24,1.89,5.7c5.69,6.66,11.65,13.1,17.56,19.57
		C266.4,494.76,269.12,497.51,271.79,500.31z M289.91,505.41c1.25,4.83,3.04,5.56,6.57,2.31c2.04-1.88,3.25-4.65,5.21-6.65
		c2.15-2.19,3.8-4.11,0.64-6.92c1.92-1.21,3.52-2.23,5.12-3.25c-2.06,0-3.85,0.96-5.73,1.18c-1.8,0.21-4.1,0.23-5.47-0.71
		c-3.49-2.37-8.15-1.06-9.14,3.07c-0.69,2.87-1.36,5.74-1.83,8.65c-0.21,1.29,0.1,2.67,0.19,4.23
		C287.24,506.56,288.42,506.05,289.91,505.41z M249.9,616.51c14.27-7.29,27.33-14.99,35.8-28.92c-4.38-1.41-7.02,0.93-9.12,3.22
		c-6.59,7.18-13.73,13.46-22.63,17.72C251.43,609.73,248.77,611.96,249.9,616.51z M236.91,461.04c-2.12-0.44-3.77-1.34-5.02-0.95
		c-8.32,2.64-16.6,5.43-24.76,8.51c-1.18,0.45-1.66,2.75-2.47,4.2c1.54,0.24,3.26,1.05,4.59,0.63c8.77-2.83,17.46-5.92,26.16-8.94
		c0.17-0.06,0.25-0.36,0.41-0.63c-0.68-0.08-1.33-0.15-2.56-0.3C234.63,462.62,235.49,462.02,236.91,461.04z M237.58,598.15
		c0.04,3.73,3.24,6.99,6.87,6.99c3.92,0,7.19-3.28,7.17-7.2c-0.01-3.67-3.93-7.69-7.42-7.61
		C240.84,590.41,237.53,594.31,237.58,598.15z M325.45,500.48c0.76-5.34-3.28-7.35-7.1-7.51c-3.83-0.16-6.14,2.53-6.17,6.75
		c-0.04,4.72,2.19,7.21,6.49,7.26C322.97,507.03,325.41,504.7,325.45,500.48z M299.93,572.32c-1.76-4.08-7.68-5.38-12.11-3.09
		c-4.03,2.08-6.12,9.1-3.82,12.84c2.49,4.06,8.45,5.48,12.07,2.88c-8.28,0.09-10.63-1.24-11.15-6.33c-0.36-3.47,2.69-6.98,7.52-7.48
		c-6,2.5-8.06,6.18-4.13,11.66c2.4-1.6,4.98-3.26,7.47-5.04c0.42-0.3,0.5-1.07,0.74-1.62c-0.79-0.22-1.59-0.44-2.18-0.6
		c0.24-1.32,0.48-2.59,0.72-3.87c-0.25-0.1-0.51-0.19-0.76-0.29c-0.52,0.61-1.04,1.22-1.71,2.01
		C292.82,569.62,292.99,569.59,299.93,572.32z M183.43,617.54c3.09-6.01,2.09-9.79-4.31-10.14c-0.56-2.5-1.06-4.72-1.56-6.94
		c-0.45-0.1-0.89-0.19-1.34-0.29c1.17,4.94-1.1,7.55-4.85,9.79c-2.71,1.61-1.77,4.47-0.27,6.79c1.48,2.3,3.34,1.7,5.24,0.56
		c1.47-0.88,2.98-1.71,4.27-2.45C181.68,615.87,182.73,616.87,183.43,617.54z M318.38,484.28c0.04-4.35-2.16-7.02-5.83-7.06
		c-3.93-0.04-7.26,3.03-7.42,6.86c-0.16,3.8,2.56,6.3,6.99,6.41C315.93,490.58,318.34,488.19,318.38,484.28z M291.23,457.62
		c0.54-0.01,1.09-0.02,1.63-0.03c0-1.87,0.71-4.32-0.2-5.44c-0.93-1.14-3.5-1.4-5.28-1.26c-1.54,0.13-3.02,1.3-4.46,2.14
		c-2.64,1.55-3.39,8.75-2.3,11.15c0.85,1.86,7.98,2.99,10.17,1.66c0.75-0.46,1.12-1.55,1.66-2.36c-0.84-0.28-1.73-0.46-2.52-0.85
		c-1.04-0.52-2.2-1.04-2.93-1.88c-0.99-1.14-1.63-2.58-2.18-3.5c1.62-0.88,3.35-1.82,5.02-2.72
		C290.31,455.55,290.77,456.58,291.23,457.62z M312.48,564.77c-0.79-1.63-1.32-3.88-2.7-5.32c-2.21-2.31-3.05-4.22-0.6-6.79
		c0.43-0.45,0.29-1.43,0.42-2.17c-2.85,3.12-4.68,7.08-9.81,6.36c-0.39-0.06-1.04,0.78-1.36,1.33c-1.41,2.39-2,4.72,0.5,6.91
		c2.93,2.56,5.35,1.44,7.7-0.84c0.14-0.13,0.35-0.19,0.57-0.31c0.19,0.82,0.38,1.6,0.51,2.18
		C309.17,565.7,310.4,565.35,312.48,564.77z M313.78,523.93c-2.44,3.7-2.43,3.72-6.9,5.37c-2.95,1.09-4.4,3.49-3.09,6.06
		c0.81,1.57,3.52,2.79,5.48,2.96c1.63,0.15,3.43-1.45,5.18-2.29c0.08,0.57,0.23,1.61,0.36,2.59c1.34-0.94,2.52-1.76,4-2.79
		c-0.6-3.83-0.66-3.72-4.42-5.63c-0.8-0.41-1.26-1.99-1.37-3.08C312.94,526.08,313.51,524.99,313.78,523.93z M180.64,514.52
		c-5.39-1.66-8.98,1.02-8.12,7.42c0.1,0.73,0.76,1.39,1.16,2.08c0.66-0.5,1.48-0.87,1.94-1.51c0.92-1.3,1.65-2.75,2.56-4.32
		c0.55,2.8,1.01,5.16,1.53,7.83c1.1-0.62,1.64-0.73,1.74-1c1-2.8,5.33-4.55,2.5-8.72c-0.49-0.72,1.01-3.74,2.27-4.43
		c1.47-0.8,3.71-0.19,5.61-0.19c-0.92-1.11-2.56-2.41-3.5-2.02C185.94,510.65,183.86,512.4,180.64,514.52z M204.17,612.01
		c-4.09-1.51-7.35-3.23-9.28-5.21c1.49-1.6,3.07-3.3,5.15-5.53c-5.81-1.14-8.92,0.82-10.34,5.29c-0.68,2.15-1.58,4.39,1.07,5.74
		C194.81,614.36,198.97,615.74,204.17,612.01z M165.71,438.5c3.56,1.26,8.25-0.42,10.47-4.9c2.76-5.56,7.99-4.26,11.96-5.75
		C180.27,423.84,167.35,429.77,165.71,438.5z M315.51,563.65c2.27-7.06,4.39-13.67,6.66-20.76c-1.84,0.66-3.25,0.73-3.71,1.42
		c-1.55,2.33-2.84,4.84-4.04,7.38c-0.25,0.53,0.69,1.59,0.47,2.17C312.73,559.64,312.69,559.62,315.51,563.65z M277.54,482.62
		c-0.68,0.63-1.53,1.2-2.04,2c-0.37,0.58-0.46,1.47-0.39,2.2c0.27,3.06,0.75,6.11,0.95,9.18c0.16,2.47,0.03,4.95,0.03,7.43
		C282.05,493.43,282.1,488.34,277.54,482.62z M206.9,436.38c2.01-0.87,3.29-1.43,4.56-1.98c-0.15-0.36-0.31-0.71-0.46-1.07
		c-3.43-0.65-6.52-0.06-7.91,3.52c-0.63,1.62-0.87,4.81-0.1,5.27c2.07,1.22,4.76,1.51,7.25,1.81c0.74,0.09,1.63-1,2.44-1.55
		c-0.59-0.75-1.11-1.57-1.79-2.24C209.44,438.7,207.91,437.33,206.9,436.38z M180.05,465.27c-0.86-2.25-1.55-4.02-2.23-5.79
		c-1.07,3.22-1.13,6.25-1.97,9.04c-1.02,3.42,0.96,4.17,3.38,4.62c1.3,0.24,2.71-0.07,4.36-0.15c-1.98-4.21,1.04-9.3-3.21-13.07
		C180.26,461.81,180.17,463.31,180.05,465.27z M171.45,570.93c-11.56-3.14-22.89,1.88-24.94,14.63c-1.15,7.14,1.7,15.08,6.47,15.91
		c-5.96-7.01-7.21-14.41-2.62-22.44C155.14,570.68,163.18,570.54,171.45,570.93z M256.15,457.64c2.19-2.86-1.61-4.37-2.43-6.5
		c-0.54-1.4-3.22-2.57-5.01-2.67c-1.02-0.06-2.17,2.22-3.27,3.45c1.4,1.04,2.7,2.26,4.23,3.07
		C251.56,455.98,253.64,456.63,256.15,457.64z M225.15,440.31c-1.21-2.27-2.51-1.48-3.71,0.13c-2.34,3.13-2.25,5.87,0.19,7.34
		c4.15,2.51,7.12,1.32,9.35-3.14c-2.44-0.79-4.96-1.6-7.49-2.42C223.98,441.66,224.48,441.09,225.15,440.31z M205.41,571.8
		c0.01-0.3,0.03-0.6,0.04-0.9c-2.31,0.29-4.72,0.25-6.88,1c-1.02,0.35-1.27,2.53-2.31,3.27c-2.92,2.08-3.01,1.96-1.35,4.94
		c1.16-0.95,2.33-1.92,4.08-3.36c0.19,1.98,0.33,3.32,0.42,4.31c0.99-0.84,2.33-1.64,3.15-2.81c0.55-0.79,0.36-2.1,0.51-3.17
		c-0.37-0.1-0.74-0.2-1.11-0.31C203.12,573.78,204.27,572.79,205.41,571.8z M194.27,514.88c0.54,0.59,1.35,2.17,2.6,2.66
		c1.89,0.75,6.08-3.36,6.39-5.86c0.34-2.77-1.78-3.06-3.6-3.38C197.41,507.9,194.73,510.83,194.27,514.88z M277.79,469.47
		c-6.4-0.16-11.38,5.27-10.89,12.55c1.48-4.64,5.28-4.85,8.28-6.31c1.95-0.95,5.24-1.59,1.69-4.66
		C276.8,470.98,277.4,470.14,277.79,469.47z M150.51,533.69c1.22,4.64,2.48,9.44,3.95,15.05c3-5.8,3.85-13.06,0.2-16.34
		c-0.27,1-0.54,1.99-0.97,3.6C152.18,534.9,151.1,534.13,150.51,533.69z M183.64,478.71c-2.47-1.28-3.96-2.16-5.55-2.83
		c-0.79-0.33-2.39-0.61-2.5-0.38c-0.89,1.85-1.5,3.83-2.2,5.77c1.42,0.47,2.83,1.3,4.26,1.33c1.48,0.03,3.21-0.39,4.39-1.23
		C183.06,480.65,183.45,479.05,183.64,478.71z M267.73,458.72c3.98-1.48,7.66-2.84,11.47-4.25c-3.02-3.34-7.92-4.33-10.62-2.16
		C266.4,454.07,265.88,456.32,267.73,458.72z M163.99,538.94c3.17,1.4,5.85,0.44,7.72-2.12c0.72-0.99,0.83-3.81,0.41-4
		c-1.44-0.65-3.36-0.96-4.89-0.58C163.71,533.1,163.32,535.84,163.99,538.94z M162.8,540.94c-6.21,5.75-3.37,11.79-0.58,17.84
		C159.77,552.69,166.4,546.95,162.8,540.94z M163.32,466.69c2.37-2.9,4.12-4.78,5.42-6.93c0.19-0.31-1.65-2.57-2.78-2.81
		c-2.29-0.48-5.76,2.83-5.38,4.95C160.81,463.18,161.89,464.29,163.32,466.69z M216.63,601.96c-3.29,0.57-4.45-0.18-3.66-1.61
		c0.87-1.57,1.88-3.5,4.41-2.4c0.45,0.2,1.43,0.11,1.58-0.16c0.25-0.46,0.25-1.56-0.03-1.72c-2.24-1.3-5.01-2.53-7.01-0.6
		c-1.4,1.34-2.5,4.35-1.96,6.06C210.84,604.3,213.54,603.76,216.63,601.96z M197.04,490.92c0-8.39,0-16.78,0-25.16
		c-0.45-0.01-0.89-0.02-1.34-0.02C194.4,474.11,195.34,482.53,197.04,490.92z M227.56,603.31c-0.39-1.22-1.15-2.8-0.9-2.98
		c1.05-0.75,2.4-1.09,3.63-1.58c1.06-0.43,2.13-0.86,3.19-1.29c-1.05-0.76-2.27-2.32-3.1-2.14c-2.11,0.47-4.31,1.41-5.92,2.8
		c-0.85,0.74-1.08,3.05-0.57,4.2C224.23,603.08,226.38,603.03,227.56,603.31z M187.45,486.35c-0.9,0.56-2.03,0.94-2.65,1.72
		c-1.52,1.92-3.15,3.89-4.06,6.12c-0.53,1.31,0.11,3.17,0.5,4.72c0.13,0.5,1.13,0.78,1.74,1.16c1.04-2.43,3.64-5.86,2.84-7.11
		C183.44,489.28,185.86,488.43,187.45,486.35z M250.21,570.24c-0.04-0.29-0.08-0.58-0.12-0.87c-2.22,0.97-5.04,1.41-6.52,3.05
		c-1.8,1.99-5.12,4.02-2.88,8.18C243.94,577.07,247.08,573.65,250.21,570.24z M266.03,594.37c4.09-4.25,8.01-8.32,11.84-12.29
		C272.82,583.12,266.56,589.52,266.03,594.37z M288.21,523.67c0.22,0.03,0.45,0.07,0.67,0.1c0.54-1.06,1.07-2.13,1.6-3.19
		c1.13,0.81,2.08,1.48,3.28,2.33c-0.31-3.09-0.55-5.59-0.79-7.92c-1.81-0.34-3.34-0.63-4.77-0.9
		C288.21,517.02,288.21,520.34,288.21,523.67z M172.56,503.38c-3.39,3.32-10.08,2.99-11.33,9.76
		C167.56,512.03,169.63,507.19,172.56,503.38z M293.5,555.19c0.42-0.15,0.85-0.3,1.27-0.46c-0.36-0.71-0.86-2.08-1.06-2.04
		c-2.14,0.46-4.96,0.5-6.2,1.89c-2.29,2.58-1.36,4.95,2.34,5.36c0.91-2.06,1.88-4.23,3.22-7.26
		C293.32,554.1,293.41,554.65,293.5,555.19z M258.99,440.8c-1.56,1.7-2.67,2.9-3.77,4.11c1.63,0.73,3.23,1.91,4.9,2.02
		c1.06,0.07,2.22-1.46,3.33-2.27C262.16,443.55,260.88,442.44,258.99,440.8z M241.77,615.79c-2.1-0.94-3.42-1.53-4.45-1.99
		c1.48-1.34,2.7-2.44,3.91-3.55c-0.3,0.3-0.6,0.6-0.9,0.9c0.75,0.3,1.49,0.71,2.27,0.84c0.24,0.04,0.93-0.74,0.86-0.99
		c-0.17-0.63-0.8-1.71-1-1.66c-1.92,0.5-4.16,0.77-5.55,1.99c-0.9,0.79-0.94,3.12-0.59,4.57c0.19,0.77,2.01,1.46,3.15,1.57
		C240.15,617.54,240.95,616.42,241.77,615.79z M215.41,452.32c-0.44-0.47-0.88-0.94-1.32-1.42c-3.02,1.59-6.09,3.11-9.03,4.84
		c-0.48,0.28-0.43,1.47-0.63,2.23c0.79-0.09,1.66,0,2.36-0.29c1.85-0.77,3.7-1.59,5.41-2.62
		C213.39,454.35,214.35,453.25,215.41,452.32z M291.63,540.05c0.79-0.34,2-0.47,2.3-1.06c1.55-3.05,0.88-8.47-1.43-11.52
		C292.2,531.78,291.93,535.73,291.63,540.05z M176.88,436.79c2.28-2.62,7.49,0.1,8.78-5.19
		C181.39,431.38,178.16,432.21,176.88,436.79z M164.14,448.9c2.29-2.04,7.41-1.1,7.51-6.03C164.91,442.14,165.05,444.4,164.14,448.9
		z M273.4,442.52c-3.7-2.78-5.24,0.66-7.37,1.37c-0.63,0.21-0.62,2.33-0.9,3.58c0.43,0.2,0.86,0.41,1.29,0.61
		C268.58,446.36,270.75,444.63,273.4,442.52z M200.2,600.12c-0.33,0.34-0.66,0.68-0.99,1.02c1.7,1.81,3.38,3.64,5.17,5.34
		c0.07,0.07,1.87-1.1,1.82-1.57C205.79,601.46,203.41,600.21,200.2,600.12z M189.81,468.3c-0.26,0.04-0.52,0.08-0.77,0.12
		c1.09,7.18,2.18,14.35,3.27,21.53c0.37-0.06,0.75-0.11,1.12-0.17C192.22,482.62,191.01,475.46,189.81,468.3z M171.89,494.17
		c0-2.77,0-4.68,0-6.58c-1.26,0.39-3.11,0.39-3.67,1.24C166.71,491.11,168.23,492.53,171.89,494.17z M243.57,464.11
		c2.17-3.11-0.42-6.87-5.44-8.32C239.97,458.62,241.65,461.18,243.57,464.11z M226.31,617.44c-0.3-2.26-0.59-4.46-0.96-7.2
		c-3.48,1.94-2.74,4.53-2.28,7.2C224.23,617.44,225.24,617.44,226.31,617.44z M201.18,527.32c-0.81-0.5-1.88-1.37-2.03-1.23
		c-1.15,1.03-2.36,2.15-2.99,3.5c-0.2,0.42,1.33,1.65,2.07,2.51C199.17,530.59,200.11,529.07,201.18,527.32z M173.91,493.85
		c3.96,2.87,5.02,0.46,5.95-1.39c0.24-0.48-1.01-1.7-1.57-2.58C176.92,491.12,175.56,492.36,173.91,493.85z M272.39,465.62
		c0.61,0.08,1.22,0.16,1.84,0.23c0.27-1.7,0.77-3.4,0.69-5.09c-0.03-0.64-1.37-1.22-2.92-2.48
		C272.17,461.51,272.28,463.56,272.39,465.62z M199.68,493.42c0.25,0.02,0.49,0.05,0.74,0.07c0.66-5.81,1.32-11.62,1.99-17.44
		c-0.24-0.02-0.49-0.05-0.73-0.07C201,481.79,200.34,487.6,199.68,493.42z M304.37,503.58c1.95-2.09,3.36-3.6,5.01-5.36
		c-1.06-0.56-2.02-1.07-3.13-1.66C305.63,498.88,305.11,500.8,304.37,503.58z M216.37,610.55c-0.12-0.33-0.24-0.66-0.36-0.99
		c-1.42,0.73-3.14,1.19-4.16,2.29c-0.6,0.65-0.11,2.32-0.11,3.37C213.51,613.44,214.94,612,216.37,610.55z M295.26,486.76
		c0.51,0.53,1.01,1.07,1.52,1.6c1.22-1.05,2.45-2.11,3.67-3.16c-0.64-0.52-1.69-1.6-1.86-1.48
		C297.38,484.6,296.35,485.72,295.26,486.76z M181.02,441.36c-5.26-0.38-5.26-0.38-6.99,2.68
		C176.77,442.99,178.9,442.17,181.02,441.36z"/>
	<path class="st0" d="M866.06,425.81c0.28-1.37,0.56-2.74,0.85-4.1c0.58-0.33,1.15-0.67,1.73-1c0.84,1.21,1.68,2.43,2.49,3.6
		c2.14-2.87,7.39-3.17,9.29-0.15c1.82,2.91,3.86,1.15,5.94,0.7c2.48-0.54,4.62-4.05,7.55-0.89c0.24,0.26,0.78,0.62,0.96,0.53
		c3.39-1.85,4.42,0.81,5.77,3.44c2.5-3.46,5.25-1.56,7.54-0.41c3.3,1.66,6.42,3.79,9.32,6.09c4.88,3.87,9.18,8.31,12.02,13.99
		c0.62,1.25,1.77,2.22,2.6,3.37c0.97,1.36,2.2,2.66,2.71,4.19c1.45,4.27,2.98,8.57,3.72,12.98c0.61,3.59,0.12,7.37,0.12,11.07
		c-0.42,0.04-0.83,0.09-1.25,0.13c0.7,1.21,1.4,2.42,2.11,3.63c-0.3,0.02-0.6,0.03-0.9,0.05c0.04,2.03,0.28,4.08,0.07,6.08
		c-0.24,2.22-0.71,4.45-1.39,6.57c-1.59,4.95-4.28,9.48-6.35,14.07c-2.13,4.74-6.68,6.11-8.87,10.23c-1.23,2.32-5.02,3.28-7.82,4.94
		c3.15,1.27,8.14-1.55,8.8,3.64c1.02,0.38,2.23,0.55,3.09,1.19c1.84,1.37,3.6,2.87,5.22,4.49c6.23,6.27,10.09,13.55,9.39,22.72
		c-0.04,0.47,0.5,1.01,0.84,1.47c0.44,0.59,1.3,1.1,1.36,1.71c0.27,2.79,0.76,5.66,0.37,8.39c-0.8,5.5-1.2,11.38-3.58,16.21
		c-1.35,2.74-1.49,5.02-1.77,7.67c-0.11,1.08-0.71,2.37-1.51,3.05c-3.35,2.82-6.87,5.44-10.32,8.15c-0.56,0.44-1.52,0.9-1.55,1.41
		c-0.2,2.79-1.92,3.42-4.27,3.47c-0.45,0.01-0.99,0.29-1.32,0.61c-1.92,1.84-3.56,4.9-5.73,5.32c-2.89,0.56-4.46,2.64-6.78,3.55
		c-3.31,1.3-6.8,2.23-10.28,2.95c-2.69,0.56-5.5,0.59-8.26,0.79c-1.43,0.1-2.87-0.03-4.3,0.06c-3.52,0.22-7.04,0.66-10.57,0.72
		c-3.79,0.07-7.59-0.17-11.38-0.3c-4.37-0.15-8.74-0.38-13.11-0.48c-1.07-0.02-2.27,0.09-3.19,0.56c-3.15,1.6-4.38-0.12-5.17-2.16
		c-5.51,0.9-11.38,3.37-16.5,2.29c-5.47-1.16-10.5,0.92-15.93-0.34c-5.54-1.29-11.69,0.05-17.57,0.18c-3.76,0.08-7.54,0.35-11.26,0
		c-2.46-0.23-3.77-2.13-3.44-4.87c6.21-0.72,8.79-5.94,12.61-9.85c-3.91-0.99-3.98-0.96-11.69,5.46c0-2.69,0-5.35,0-8.3
		c0.59,0,1.95,0,3.51,0c-0.14-1.85,1.16-4.3-2.25-5.1c-0.56-0.13-1.39-1.7-1.18-2.06c1.77-2.97-0.8-5.49-1.37-7.79
		c-1.93-7.83-0.01-13.77,5.8-18.88c0.27-0.24,0.4-0.64,0.21-1.48c-1.31,0.97-2.62,1.93-4.2,3.1c-3.12-2.82,3.22-4.07,1.07-6.32
		c-0.88-1.28-1.76-2.56-2.4-3.49c2.04-1.47,3.59-2.6,5.19-3.75c0.18,0.53,0.57,1.69,0.96,2.85c0.15-0.03,0.3-0.05,0.45-0.08
		c-0.2-1.92-0.41-3.83-0.7-6.6c-1.92,1.15-3.52,2.11-6,3.6c1.4-3.14,2.6-5.8,4.11-9.18c-1.18,0.73-1.79,1.12-2.48,1.55
		c0-3.31,0.28-6.56-0.09-9.73c-0.28-2.39-0.66-4.41,1.97-5.7c0.08-0.04-0.44-2.06-1.11-2.72c-1.82-1.8-3.19-3.23,0.25-4.78
		c0.73-0.33,1.03-1.63,1.66-2.7c-0.98-0.16-2.08-0.34-3.96-0.64c2.6-2.98,4.94-5.58,7.17-8.26c0.43-0.52,0.85-1.59,0.61-2
		c-0.46-0.76-1.35-1.62-2.18-1.76c-7.76-1.28-8.19-1.87-6.24-9.42c0.13-0.5,0.29-0.99,0.81-0.82c3-2.34,6-4.69,8.85-6.92
		c-0.5-0.02-1.98-0.37-3.33-0.1c-5.56,1.11-5.55,1.18-5.15-3.87c1.41-0.72,2.73-1.39,4.95-2.52c-2.93-0.9-4.48-1.37-5.9-1.8
		c0.91-2.1,1.37-3.66,2.23-4.97c0.55-0.84,2.23-2.01,2.47-1.82c2.13,1.65,3.35-0.35,3.24-1.37c-0.26-2.2,3.81-4.63-0.32-6.67
		c-0.58-0.29-0.82-1.81-0.78-2.74c0.32-7.26,0.76-14.51,0.52-21.82c-0.28,2.78-0.57,5.57-0.85,8.35c-0.26-0.01-0.52-0.01-0.78-0.02
		c-0.15-1.21-0.3-2.43-0.45-3.64c-0.22,0.03-0.45,0.06-0.67,0.08c0.5,3.47,1,6.93,1.5,10.4c-0.13,0.05-0.27,0.11-0.4,0.16
		c-0.85-2.41-1.69-4.82-2.54-7.23c-0.28-1.1-0.56-2.2-0.85-3.31c-0.33-1.48-0.76-2.94-0.97-4.44c-0.19-1.32-0.76-3.25-0.12-3.92
		c3.05-3.21-0.57-6.23,0.06-9.45c0.75-3.86,0.18-7.98,0.18-13.02c1.76,2.65,2.95,4.43,4.08,6.13c0.61-2.08,1.21-4.12,1.98-6.76
		c0.64,1.79,1.09,3.09,1.33,3.76c3.01-1,6.13-2.24,9.36-2.96c0.65-0.15,1.74,1.65,3.44,3.38c-5.08-0.11-8.25,0.69-8.27,5.45
		c-0.01,2.5,1.22,3.71,3.53,3.67c2.17-0.03,4.26-0.52,4.26-3.42c0-2.81,0-5.62,0-8.88c1.52,0.11,2.56,0.18,4.15,0.29
		c-0.79,1.65-1.32,2.74-2.43,5.05c3.29-1.48,5.71-2.53,8.1-3.65c0.42-0.2,0.93-0.99,1.04-0.92c3,1.83,5.75,1.12,8.42-0.72
		c0.23,0.8,0.81,1.7,0.61,2.37c-0.31,1.05-1.72,2-1.62,2.88c0.15,1.35,1.04,3.58,1.87,3.7c1.68,0.24,4.08,0.21,4.34-2.64
		c0.08-0.86,0.26-1.78,0.65-2.54c0.59-1.17,1.39-2.23,2.1-3.34c1.13,0.92,2.27,1.84,3.5,2.84c0.23-0.5,0.64-1.38,1.41-3.04
		c0.55,1.8,0.91,3,1.44,4.72c1.94-1.49,6.2,1.29,5.98-3.99c0-0.08,1.89-0.4,2.88-0.32c1.27,0.11,2.53,0.51,2.51,1.29
		c0,2.76-0.98,6.13,0.27,8.1c1.33,2.09,4.69,1.69,7.32-0.49c-4.2-1.87-3.73-4.41-1.36-6.9c1.93,0.64,3.73,1.23,5.28,1.74
		c1.67-1.31,3.19-2.5,4.88-3.82c0.74,0.79,1.54,1.63,2.34,2.48c0.17-0.13,0.34-0.26,0.51-0.39c-0.37-0.63-0.75-1.26-1.1-1.84
		c3.54-2.48,4.22,1.81,6.36,2.67c-0.85,1.05-1.71,2.1-2.74,3.37c1.84,1.5,3.59,2.93,5.24,4.28c-1.44,1.32-2.66,2.44-3.55,3.26
		c-1.92-0.75-3.58-1.4-5.24-2.05c-0.29,0.45-0.58,0.9-0.87,1.35c1.05,1.06,1.93,2.73,3.18,3.08c4.69,1.32,8.51-1.61,9.05-6.5
		c0.16-1.48,0.44-2.96,0.68-4.49C869.9,427.32,867.98,426.56,866.06,425.81z M801.99,606.66c-3.79-0.76-8.23,2.77-8.56,7.2
		c4.47-0.7,5.87-4.72,8.47-7.26c0.78,0.49,1.56,0.98,2.22,1.39c1.67-1.96,3.32-3.91,5.1-6C805.54,601.82,803.22,603.4,801.99,606.66
		z M870.56,588.85c-1.96,1.06-3.92,2.11-6.18,3.34c0.87,0.16,1.59,0.54,2.05,0.34c4.23-1.86,8.44-3.79,12.59-5.83
		c0.42-0.2,0.38-1.32,0.56-2.01c0.16-0.63,0.12-1.57,0.52-1.82c3.22-2.02,5.2-4.61,5.57-8.6c0.13-1.33,2.02-2.44,2.92-3.77
		c0.65-0.96,1-2.13,1.35-2.91c-1.03-0.48-1.8-0.84-1.76-0.82c0.24-1.49,0.23-2.56,0.6-3.47c0.45-1.09,1.22-2.04,1.83-3.02
		c-2.98-0.48-4.85-4.31-3.82-7.96c-0.87-0.77-1.93-1.41-2.57-2.33c-4.4-6.33-11.04-6.88-17.84-7.03c-4.92-0.12-9.83-0.17-14.75-0.27
		c-4.01-0.09-8.02-0.32-12.02-0.24c-0.71,0.01-1.89,1.16-2,1.92c-0.31,2-0.24,4.08-0.19,6.13c0.12,5.03,1.05,10.17,0.27,15.05
		c-0.87,5.45-0.46,10.76-0.36,16.14c0.02,1.25,0.13,2.5,0.16,2.96c3.58-0.86,6.64-1.59,10.37-2.49c-0.54,1.74-0.78,2.51-1.32,4.27
		c2.87-3.95,9.17-4.55,12.68-2.63c1.72-0.39,3.93-0.91,5.01-0.04c2.29,1.86,3.21,0.44,4.46-0.98c0.83,0.6,1.67,1.2,2.5,1.81
		C870.98,586,870.77,587.42,870.56,588.85z M819.65,575.82c-0.81,2.03-1.62,4.06-2.43,6.09c0.46,0.41,0.92,0.82,1.38,1.23
		c1.8-2.82,3.6-5.65,5.13-8.05c-0.73,0.42-2.16,1.24-3.54,2.04c-0.14-0.31-0.36-0.78-0.58-1.25c1.87-1.53,3.75-3.05,6.16-5.02
		c-6.92-0.4-13.79,3.81-14.21,7.64c1.59,0.58,3.05,1.12,4.47,1.64c0.18-1.12,0.37-2.37,0.57-3.67
		C817.69,576.25,818.67,576.03,819.65,575.82z M796.64,582.37c0.91,5.16-1.82,6.48-7.16,5.57c1.38,0.62,1.9,0.85,2.48,1.11
		c-0.68,0.55-1.23,1-1.96,1.59c1.43,0.31,2.48,0.53,3.51,0.75c-0.94,1.19-1.75,2.15-2.48,3.16c-0.65,0.9-1.01,2.24-1.86,2.69
		c-1.08,0.57-2.53,0.45-3.83,0.62c4.79,1.23,4.73,1.19,7.29-2.46c0.52-0.75,1.65-1.07,2.5-1.58c0.5,0.97,1.26,1.89,1.45,2.92
		c0.25,1.34,0.06,2.77,0.06,4.16c0.44,0.2,0.88,0.4,1.32,0.6c3.13-3.61,6.27-7.22,9.4-10.84c-4.63,3.4-5.46-2.35-8.53-3.61
		c0.79-1.05,1.37-2.52,2.44-3.14c4.56-2.61,4.61-2.52,2.52-6.01c-1.76,2.38-3.7,5.01-5.64,7.63c-0.21-0.09-0.42-0.19-0.63-0.28
		c0.13-1.03,0.25-2.06,0.37-3.04c-0.64,0.11-1,0.17-1.37,0.23c0.1-0.96,0.19-1.92,0.27-2.67c1.53,0.11,2.78,0.21,4.4,0.33
		c0.21-1.93,1.11-4.05,0.42-5.27c-1.24-2.2-3.29-4.04-5.29-5.66c-1.37-1.1-11.55,1.01-12.76,2.47c-2.7,3.25-4.95,6.44-5.19,11.2
		c-0.15,2.98,1.11,5.02,1.97,7.3c0.36,0.95,3.01,2,3.98,1.57c1.78-0.79,3.09-2.65,4.6-4.06c-0.1-0.07-0.2-0.14-0.3-0.21
		C791.29,585.77,793.96,584.07,796.64,582.37z M853.94,507.65c0.67-0.97,1.34-1.94,2.2-3.17c0.65,1.21,1.17,2.17,1.68,3.13
		c1.06-0.4,2.05-0.77,3.17-1.19c-0.55-0.59-0.91-0.98-1.8-1.93c2.85,0.81,5.04,1.43,6.83,1.94c0,1.22,0,2.22,0,3.21
		c1.8-5.42,6.1-7.34,10.04-5.03c2.88-0.93,5.06-1.64,7.11-2.3c0-4.27,0-9.01,0-13.76c3.4,4.15,5.53,0.3,7.67-0.69
		c0.64-0.3,1.08-2.4,0.7-3.28c-1.95-4.47-4.48,0.22-7.26-0.39c-1.82-3.71-3.77-7.71-5.78-11.8c2-0.7,3.27-1.15,4.9-1.72
		c-3.06-3.66-5.32,1.13-7.64-0.44c-2.01-1.32-4.14-2.66-6.38-2.89c-4.55-0.46-9.15-0.37-13.73-0.41
		c-5.96-0.05-11.93-0.01-18.28-0.01c0,12.86,0,25.16,0,37.94c4.46,0.51,8.59,0.97,12.67,1.44c0.06,1.31,0.1,2.22,0.15,3.13
		c-0.55,1.1-1.1,2.21-1.53,3.07c0.93,0.48,1.63,0.83,2.33,1.19c-0.05-0.58-0.11-1.16-0.18-1.86c1.14,0.51,2.01,0.9,2.57,1.15
		C853.58,510.95,853.76,509.3,853.94,507.65z M807.33,561.22c1.16,3.55,3.62,4.1,7.68,1.7c3.13-1.85,6.28-3.66,9.59-5.59
		c0.4,1.14,0.62,1.77,0.84,2.4c0.5-3.17,0.51-6.25,0.48-9.33c0-0.22-0.23-0.55-0.43-0.63c-2.33-0.88-4.65-1.78-7.02-2.52
		c-0.3-0.09-0.88,0.72-1.35,1.14c3.71,3.33,4.28,5.18,0.95,7.55c-1.83,1.3-5.83,1.06-7.98-0.1c-1.58-0.86-2.79-4.63-2.24-6.56
		c0.54-1.87,3.51-3.15,5.94-1.68c-0.87,1.62-1.54,2.85-2.67,4.96c3.61-3.55,6.38-6.27,8.98-8.82c-1.27-0.63-3.68-2.92-5.79-2.67
		c-5.14,0.6-10.64,0.9-14.21,6.03c-2.91,4.19-2.48,11.79,1.58,13.52C803.33,561.34,805.41,561.05,807.33,561.22z M825.21,546.26
		c0.46-0.05,0.92-0.09,1.38-0.14c0.13-0.71,0.34-1.42,0.36-2.13c0.42-12.09,0.86-24.17,1.13-36.27c0.03-1.24-1.08-2.49-1.55-3.77
		c-0.37-0.99-1.13-2.52-0.74-2.97c1.58-1.84,0.08-3.24-0.1-4.89c-0.61-5.67-0.81-11.38-1.17-17.08c-0.11-0.01-0.22-0.01-0.33-0.02
		c0,6.22,0,12.44,0,18.66c-0.32,0.03-0.64,0.05-0.96,0.08c-0.76-5-1.52-10-2.28-15.01c-0.02,5.19,0.49,10.3,1.32,15.37
		c0.45,2.76,0.83,4.99-1.89,7.12c-1.42,1.11-2.48,3.83-2.28,5.67c0.81,7.31,1.99,14.6,3.41,21.82
		C822.4,537.3,823.95,541.75,825.21,546.26z M893.69,513.25c-0.18,0.06-0.36,0.13-0.54,0.19c0.55,2.22,1.26,4.41,1.57,6.66
		c0.11,0.83-0.5,2.3-1.17,2.59c-3.55,1.57-3.98,4.53-3.62,7.72c0.56,4.99,1.56,9.93,2.04,14.92c0.43,4.53,0.3,9.1,0.61,13.65
		c0.23,3.41,0.76,6.81,1.16,10.21c1.2-0.9,1.59-1.81,1.69-2.75c1.05-9.54,2.12-19.08,3.04-28.64c0.42-4.38,1.66-9.14,0.44-13.08
		c-1.1-3.56-0.52-6.84-0.95-10.2c-0.21-1.64-0.2-3.32-0.29-4.98c-0.4,0.02-0.8,0.04-1.2,0.07c0,2.79,0,5.58,0,8.38
		c-0.89-1.43-0.8-2.85-0.91-4.25c-0.1-1.23-0.42-2.44-0.64-3.66c-0.21,0.04-0.42,0.07-0.62,0.11c0.17,1.39,0.34,2.78,0.51,4.17
		c-0.19,0.02-0.37,0.03-0.56,0.05C894.06,514.01,893.87,513.63,893.69,513.25z M874.01,613.3c13.37-7.43,25.38-16,34.93-27.73
		c-2.58-2.79-7.02-2.45-9.85,0.95c-6.21,7.46-13.76,13.32-21.88,18.46C874.07,606.98,873.25,609.43,874.01,613.3z M917.78,456.38
		c-0.39-3.26,0.22-6.48-4.37-7.52c-7.97-1.81-15.05,6.41-13.55,13.85c0.24,1.2,1.72,2.51,2.95,3.1c5.02,2.38,11.93-1.21,14.93-8.13
		c-1.83,1.01-2.92,1.97-4.16,2.22c-1.61,0.32-3.34,0.08-5.53,0.08c0-1.98-0.7-4.37,0.18-5.34c1.03-1.15,3.43-1.07,5.23-1.53
		c-0.15,1.44-0.3,2.89-0.46,4.38C914.27,457.19,915.84,456.83,917.78,456.38z M792.3,537.61c4.25,0.48,6.73-3.28,7.25-7.37
		c0.46-3.65-4.13-8.22-7.64-8.17c-4.26,0.06-7.69,3.16-7.75,7C784.09,533.61,787.85,537.56,792.3,537.61z M881.71,527.81
		c0.07-4.21-3.33-8.1-7.15-8.18c-3.89-0.08-7.94,3.98-7.94,7.96c-0.01,3.62,4.05,7.46,7.97,7.53
		C878.12,535.19,881.65,531.56,881.71,527.81z M816.27,523.99c0-4.13-3.06-7.36-7.09-7.49c-3.66-0.11-6.88,3.29-6.96,7.35
		c-0.09,4.74,2.41,7.52,6.74,7.48C813.95,531.28,816.27,528.95,816.27,523.99z M811.26,432.62c-3.3-1.25-13.22,1.42-17.66,5.01
		c-4.65,3.76-3.37,9.95-5.68,14.74c3.46-2.63,9.3-2.04,9.81-8.56c-2.11,0.26-4.27,0.52-6.42,0.79c1.55-1.78,3.38-3.9,5.27-3.95
		c3.85-0.12,7.41-0.3,10.75-2.53c1.33-0.88,3.18-0.98,4.79-1.44c-0.09-0.29-0.18-0.58-0.28-0.87c-1.54-0.16-3.07-0.32-5.5-0.57
		C808.49,434.09,809.77,433.41,811.26,432.62z M808.29,495.34c1.79-6.35,3.27-11.57,4.87-17.25c-4.43-0.09-6.53,2.8-7.4,5.59
		c-2.48,7.91-3.82,16.06-1.84,25.41c1.72-2.23,2.94-3.82,4.39-5.69c-0.37-0.45-0.96-1.18-1.57-1.94
		C809.46,499.97,809.71,497.42,808.29,495.34z M901.5,521.34c5.48-4.74,21.77-25.26,22.85-29c-3.3,3.25-6.22,6.11-9.23,9.08
		c-3.56-2.04-5.45,0.7-6.72,3.37C905.95,509.98,903.96,515.38,901.5,521.34z M907.12,551.43c-2.05,3.18-3.91,6.18-5.89,9.11
		c-1.64,2.42-0.88,4.01,1.76,5.49c3.2-4.3,6.43-8.47,9.41-12.81c0.63-0.92,0.2-2.51,0.53-3.72c0.42-1.51,0.77-3.27,1.78-4.33
		c1.39-1.46,3.36-2.35,5.09-3.49c-0.17-0.52-0.34-1.04-0.51-1.56c-1.4,0-2.97-0.42-4.15,0.09c-2.36,1.01-3.27,3.05-3.01,5.72
		c0.35,3.61-1.09,6.43-4.49,8.71C907.42,553.27,907.28,552.38,907.12,551.43z M867.83,600.7c0.25,0.45,0.49,0.91,0.74,1.36
		c1.06-0.09,2.37,0.18,3.15-0.34c2.91-1.93,5.67-4.08,8.43-6.21c4.29-3.31,8.56-6.66,12.8-10.04c0.91-0.72,1.64-1.66,2.45-2.5
		c-1.17-0.07-2.71-0.65-3.45-0.12C883.84,588.7,875.85,594.72,867.83,600.7z M882.88,436.64c-0.19-1.29-0.46-2.76-0.6-4.24
		c-0.06-0.67,0.13-1.36,0.2-2.04c-0.86,0.07-2.2-0.18-2.49,0.26c-1.23,1.91-2.65,3.92-3.06,6.08c-0.69,3.67,0.06,4.13,3.67,3.32
		c0.34,1.25,0.65,2.51,1.02,3.75c0.1,0.34,0.36,0.64,1.01,1.75c2.37-2.49,4.51-4.74,7.45-7.82
		C886.72,437.2,884.69,436.91,882.88,436.64z M898.12,499.48c3.66-4.29,5.14-24.18,2-26.83
		C897.98,475.11,896.47,495.38,898.12,499.48z M831.68,437.68c0.78-1.18,1.12-2.33,1.81-2.59c0.96-0.37,2.17-0.06,3.27-0.06
		c0.91,0.01,1.81,0,2.72,0c-6.15-3.82-9.22-3.9-11.48-0.34c-1.2,1.89-3.88,4.02-1.03,6.75c2.89,2.76,5.76,3.05,9.44,0.52
		C834.66,440.39,832.98,438.86,831.68,437.68z M924.64,566.23c0.32,1.47,0.45,2.9,0.97,4.18c0.27,0.67,1.23,1.05,1.88,1.56
		c0.36-0.63,1.18-1.48,1-1.86c-0.71-1.52-1.74-2.89-2.93-4.76c0.83-3.22,7.08,2.22,6.92-3.49c-2.36-1.61-8.25-2.12-10.44-0.63
		c-2.07,1.41-4.92,2.83-2.82,5.99C921.4,570.5,922.59,566.42,924.64,566.23z M796.76,468.13c0-1.96,0.55-3.79-0.11-4.9
		c-1.44-2.42-6.97-2.25-10.36,0.15c-2.9,2.06-2.7,4.64-1.11,7.05C789.18,470.48,791.38,465.09,796.76,468.13z M800.93,462.28
		c0.52,4.44,1.01,8.65,1.56,13.32c4.64,2.36,5.18,2.06,5.2-3.75c0.01-1.56,0.04-3.15-0.21-4.68c-0.26-1.6-0.83-3.14-1.27-4.71
		c-0.36,0.07-0.72,0.14-1.07,0.2c-0.31,1.11-0.62,2.23-0.98,3.55C802.97,464.77,801.96,463.54,800.93,462.28z M859.17,520.08
		c3.29,0.07,5.37-2.16,5.63-5.93c0.19-2.87-1.81-3.08-3.81-3.13c-2.64-0.07-5.21,2.74-5.38,5.57
		C855.45,519.2,856.9,520.03,859.17,520.08z M798.24,485.07c-1.75-1.27-2.81-2.64-3.99-2.75c-2.35-0.23-6.44,4.4-5.83,6.79
		c0.28,1.11,3.22,2.74,3.62,2.42C794.16,489.89,795.84,487.7,798.24,485.07z M890.76,427.41c-0.26,0.43-0.52,0.85-0.78,1.28
		c0.72,0.51,1.5,0.94,2.14,1.53c1.32,1.23,3.22,2.35,3.69,3.88c0.7,2.25-1.83,1.98-3.17,2.69c-0.76,0.4-1.33,1.55-1.54,2.47
		c-0.1,0.44,0.82,1.12,1.28,1.7c2.21-1.88,4.49-3.69,6.55-5.72c0.41-0.41,0.08-1.71-0.12-2.56c-0.26-1.12-0.73-2.18-0.93-2.76
		C895.26,429,893.01,428.2,890.76,427.41z M920.85,571.38c-3.33-2.97-5.74-2.08-7.92-0.54c-2.4,1.69-2.83,4.31-2.18,6.96
		c0.24,0.96,1.38,1.75,2.25,2.45c0.16,0.13,1.32-0.48,1.43-0.89c0.24-0.97,0.29-2.06,0.07-3.02c-0.13-0.55-0.94-0.93-1.04-1.02
		C915.82,574.06,918.13,572.83,920.85,571.38z M895.71,578.19c1.4-1.97,4.91-2.78,1.47-6.22c2.82,1.68,4.39,1.26,4.85-1.62
		c0.89,0.76,1.57,1.34,2.25,1.92c0.3-0.23,0.6-0.46,0.9-0.69c-0.73-1.03-1.26-2.69-2.22-2.98c-3.22-0.98-6.38-0.23-8.19,2.74
		C893.56,573.34,892.72,575.89,895.71,578.19z M849.75,439.88c-1.01,0.32-2.8,0.36-3.65,1.27c-1.93,2.06-2.49,4.67-0.41,7.06
		c2.52,2.9,5.26,1.96,9.19-0.38c-2.78-1.14-4.69-1.92-6.8-2.79C848.46,443.88,848.94,442.39,849.75,439.88z M843.27,526.8
		c0.18,1.13,0.35,2.26,0.53,3.38c-0.17,0.11-0.34,0.22-0.51,0.33c-0.41-0.72-0.82-1.45-1.22-2.17c-0.19,0.13-0.38,0.27-0.57,0.4
		c0.22,1.04,0.45,2.07,0.77,3.56c-1.18-0.92-1.94-1.52-2.12-1.67c0.6,3.29,1.27,6.98,1.98,10.9c0.94-0.09,2.03-0.2,3.49-0.35
		C844.13,536.27,847.18,531.17,843.27,526.8z M870.87,446.91c-3.86-2.38-8.45-0.24-9.65,4.79c-0.25,1.04,1.38,2.52,2.15,3.8
		c1.38-0.92,4.06-2.19,3.93-2.69C866.37,449.37,868.48,448.13,870.87,446.91z M931.3,479.25c-6.54-0.75-13.6,7.08-12.06,11.52
		C923,487.18,926.81,483.54,931.3,479.25z M879.09,511.07c-2.42-1.59-4.01-3.31-4.76-3c-1.97,0.83-3.57,2.53-5.32,3.89
		c1.11,1.41,2.85,4.19,3.22,4.02C874.35,514.99,876.15,513.3,879.09,511.07z M847.32,595.79c-3.57-1.93-5.99-1.32-8.03,1.08
		c-2.08,2.45-1.98,4.93,0.74,8.5c0.96-2.26,1.64-3.88,2.16-5.09C843.85,598.83,845.4,597.47,847.32,595.79z M802.73,479.16
		c-0.58-2.77-5.53-6.02-7.72-4.74c-1.26,0.73-1.92,2.49-2.84,3.79c1.26,0.69,2.51,1.93,3.79,1.96
		C798.21,480.23,800.47,479.54,802.73,479.16z M835.52,616.69c-0.12-1.97-0.33-3.85-0.29-5.71c0.01-0.59,0.7-1.16,1.09-1.74
		c-1.06-0.09-2.23-0.5-3.17-0.21c-2.68,0.85-4.07,2.65-3.27,5.64C830.74,617.87,833.08,616.93,835.52,616.69z M913.6,534.75
		c-2.44-2.12-5.3-1.27-7.39,0.04c-1.58,0.99-2.21,3.48-2.98,4.81c1.95,0.17,3.3,0.29,4.64,0.41c-0.02,0.38-0.05,0.75-0.07,1.13
		C909.69,539.07,911.57,536.99,913.6,534.75z M862.05,593.36c-3.79-2.44-6.45-2.36-8.21,0.08c-2.21,3.08-1.82,4.56,2.69,7.93
		c-0.13-1.97-0.22-3.35-0.31-4.79C857.9,595.66,859.82,594.6,862.05,593.36z M912.69,602.66c-0.34-0.36-0.67-0.72-1.01-1.08
		c-6.89,3.69-14.28,10.62-13.47,12.69c2.61-1.93,5.27-3.78,7.8-5.8C908.31,606.63,910.47,604.6,912.69,602.66z M885.96,510.7
		c-0.59,0.07-1.18,0.15-1.77,0.22c0.66,7.27,1.32,14.54,1.98,21.81c0.5-0.05,1-0.09,1.5-0.14
		C887.1,525.29,886.53,517.99,885.96,510.7z M860.43,527.15c-2.54,1.78-5.43,2.78-4.58,6.24c0.19,0.77,2.63,1.83,3.44,1.46
		C862.64,533.32,861.61,530.53,860.43,527.15z M917.99,589.34c-3.44-0.49-5.22,1.25-4.16,4.76c0.28,0.95,2.51,1.93,3.75,1.82
		c1.76-0.16,4.22-0.58,3.65-3.22c-1.07,0.07-2.67,0.35-2.73,0.15C918.11,591.66,918.1,590.35,917.99,589.34z M794.1,512.72
		c0.61-2.86,1.13-5.36,1.67-7.91c-0.27-0.09-0.93-0.3-1.28-0.42c0.89-1.64,1.66-3.07,2.43-4.49
		C791.82,503.6,790.66,509.11,794.1,512.72z M909.95,476.51c0.61,3.35,1.76,4.34,3.98,2.91c0.88-0.57,1.32-1.9,1.84-2.95
		c0.41-0.83,0.64-1.74,0.94-2.62c-0.83-0.19-1.89-0.78-2.45-0.48C912.71,474.21,911.37,475.44,909.95,476.51z M927.29,588.53
		c-0.18,1.14-0.82,2.75-0.47,4.11c0.18,0.7,2.37,1.6,3.21,1.28c1.75-0.68,3.21-2.12,4.58-3.09
		C931.89,589.97,929.92,589.35,927.29,588.53z M800.97,538.54c3.39,0.53,5.33-0.83,5.39-3.96c0.01-0.5-2.4-1.72-3.35-1.44
		C800.42,533.92,799.23,535.77,800.97,538.54z M876.74,541.06c3.05-2.27,6.1-4.54,9.1-6.76
		C880.88,533.14,878.08,534.91,876.74,541.06z M914.6,534.25c4.56,3.69,5,3.49,7.97-3.45C920.18,531.84,917.78,532.88,914.6,534.25z
		 M818.05,534.78c0.06-0.32,0.13-0.64,0.19-0.95c-1.3-0.27-2.65-0.9-3.88-0.71c-0.95,0.15-2.32,1.21-2.47,2.04
		c-0.17,0.98,0.59,2.33,1.32,3.19c0.38,0.44,1.58,0.18,2.41,0.23c-0.15-0.8-0.3-1.6-0.49-2.6
		C816,535.63,817.03,535.21,818.05,534.78z M789.27,518.51c0.61-0.24,1.22-0.47,1.82-0.71c-1.65-3.36-3.3-6.72-4.96-10.09
		c-0.62,0.31-1.23,0.61-1.85,0.92C785.95,511.92,787.61,515.21,789.27,518.51z M848.07,611.21c-2.89,0.5-3.89,2.3-3.13,4.42
		c0.41,1.15,2.29,1.78,3.73,2.79C848.42,615.41,848.25,613.4,848.07,611.21z M835.72,457.72c0.32,0.11,0.65,0.21,0.97,0.32
		c1.62-2.03,3.24-4.07,4.86-6.1c-0.31-0.4-0.63-0.8-0.94-1.2c-1.63,0.93-3.59,1.57-4.76,2.91
		C835.15,454.43,835.72,456.32,835.72,457.72z M890.34,464.13c-0.48-0.05-0.95-0.11-1.43-0.16c-3.87,6.61-3.87,6.61-0.93,7.55
		C888.79,469,889.57,466.57,890.34,464.13z M859.54,607.65c0,2.9-0.44,4.87,0.19,6.4c0.31,0.76,2.58,0.72,3.83,1.01
		c-0.25-1.15-0.21-1.85-0.55-2.26c-0.37-0.46-1.08-0.65-1.02-0.62c0.41-0.45,0.94-1.04,1.7-1.88
		C862.23,609.37,861.49,608.9,859.54,607.65z M929.33,461.39c-4.8,2.12-6.3,5-4.98,9.4C926.08,467.52,927.49,464.86,929.33,461.39z
		 M798.53,542.35c0.07-0.43,0.15-0.86,0.22-1.29c-1.62-0.27-3.44-1.1-4.79-0.62c-1.02,0.36-1.44,2.4-2.13,3.69
		c0.3,0.14,0.6,0.29,0.9,0.43C794.66,543.82,796.59,543.09,798.53,542.35z M800.9,451.3c2.07-1.99,4.42-4.25,7.4-7.1
		C802.59,445.41,801.33,446.87,800.9,451.3z M915.5,531.32c-0.07-0.41-0.14-0.82-0.21-1.23c-2.44-1.38-4.64-1.65-6.22,0.93
		c0.09,0.48,0.18,0.96,0.27,1.43C911.4,532.08,913.45,531.7,915.5,531.32z M891.9,458.02c0.33,0.25,0.65,0.5,0.98,0.75
		c0.27-0.36,0.54-0.72,1.04-1.38c0.18,1.21,0.31,2.08,0.44,2.95c0.33,0.07,0.67,0.13,1,0.2c0.46-1.75,0.92-3.51,1.38-5.26
		c-0.79-0.21-1.96-0.84-2.3-0.54C893.42,455.63,892.73,456.9,891.9,458.02z M816.05,582.78c-0.31-0.29-0.61-0.59-0.92-0.88
		c-4.39,0.59-5.08,1.57-3.34,5.19C813.26,585.59,814.65,584.19,816.05,582.78z M816.83,601.81c-0.37-0.21-0.73-0.42-1.1-0.63
		c-1.36,1.21-2.73,2.42-3.95,3.51c1.27,1,2.2,1.74,3.42,2.71C815.81,605.29,816.32,603.55,816.83,601.81z"/>
	<path class="st0" d="M654.42,433.06c-4.35-3.05-9.34-1.9-14.13-2.19c-1.87-0.11-3.71-0.75-5.56-1.14c0.02-0.44,0.03-0.89,0.05-1.33
		c1.24-1.04,2.48-2.08,3.89-3.27c0.15,0.72,0.35,1.69,0.62,3.02c3.24-1.38,6.16-2.62,9.31-3.96c0.26,1.05,0.56,2.25,1.06,4.21
		c2.18-1.43,4.11-2.7,6.72-4.41c2.03,0.5,4.93,0.72,4.68,5.22c-0.17,3.03,2.01,4.09,4.42,2.18c3.13-2.48,5.77-5.59,8.98-8.78
		c0.8,0.46,2.29,1.33,4.1,2.37c-4.95,4.66-5.21,10.68-6.27,16.39c-0.19,1,0.19,2.1,0.43,4.31c1.43-1.83,2.3-2.6,2.75-3.58
		c2.02-4.38,3.86-8.85,5.92-13.21c0.29-0.62,1.4-0.85,2.14-1.26c0,0,0.14,0.14,0.14,0.14c0.76,1.41,1.52,2.82,2.21,4.08
		c2.44-2.07,5.12-4.35,8.42-7.15c0.21,1.64,0.12,2.4,0.43,2.96c0.44,0.8,1.06,1.82,1.8,2.03c0.61,0.18,1.7-0.52,2.27-1.12
		c2.08-2.16,4.65-2.36,8.27-2.41c-1.22,2.09-2.12,3.62-3.11,5.32c1.28,1.47,2.64,3.05,4.67,5.38c1.42-2.98,2.51-5.25,3.75-7.84
		c5.99,3.23,11.49,6.89,15.08,12.85c0.12,0.2,0.15,0.53,0.31,0.6c6.83,3.02,6.39,10.35,9.51,15.57c1.87,3.13,1.52,6.2,2.14,9.32
		c0.33,1.67,1.08,3.25,1.91,5.65c-0.33,0.6-1.11,2.04-1.9,3.48c0.39,0,0.79,0,1.18,0c0.18,2.32,0.73,4.68,0.45,6.95
		c-0.58,4.79-0.79,9.88-2.71,14.15c-1.29,2.85-0.31,7.05-4.51,8.87c-1.39,0.6-1.24,4.13-2.57,5.65c-2.57,2.94-3.81,7.33-8.37,8.29
		c-0.47,0.1-1.19,0.34-1.28,0.66c-1.9,6.61-8.55,6.7-13.09,9.67c-1.37,0.9-2.52,2.13-3.58,3.04c0.87,1.16,1.67,2.23,2.47,3.31
		c-1.36-0.31-2.77-0.99-4.06-0.81c-0.95,0.13-2.13,1.25-2.47,2.2c-0.29,0.81,0.21,2.58,0.84,2.87c0.79,0.35,2.35-0.07,3.07-0.71
		c1.07-0.95,1.7-2.4,2.52-3.64c3.38,4.08,3.14,4.65-1.22,6.93c-3.15,1.65-6.23,3.61-8.85,5.98c-1.27,1.15-1.42,3.54-2.08,5.37
		c0.49,0.14,0.97,0.28,1.46,0.42c0.13-0.94,0.26-1.88,0.3-2.17c2.17-0.46,4.03-0.86,5.9-1.26c-0.2-0.22-0.4-0.45-0.6-0.67
		c3.26-2.72,6.51-5.44,9.64-8.05c0.97,0.42,2.05,1.32,2.68,1.07c4.53-1.8,6.39-0.24,8.57,3.61c2.38,4.2,3.65,8.55,4.93,13.04
		c0.72,2.52,1.82,4.93,3.15,8.43c1.98,1.22,4.8,9.03,3.31,11.67c-5.53-3.01-9.76-0.82-11.04,5.88c-0.94,0-1.91,0-3.69,0
		c3.57,1.44,6.37,2.58,9.19,3.7c0.07,0.03,0.22-0.13,0.51-0.31c-1.41-0.78-2.73-1.5-4.05-2.23c0.77-2.03,0.77-2.03,9.45-4.64
		c0.35,1.61,0.68,3.19,1.04,4.84c0.19-1.29,0.38-2.51,0.6-4c6.49,3.26,0.03,9.47,3.62,13.26c0.81-0.75,1.63-1.51,2.46-2.28
		c2.66,3.33,2.11,6-2.39,10.86c1.33-0.33,2.33-0.9,3.12-0.69c0.9,0.24,1.61,1.18,2.53,1.91c-0.43,0.71-0.72,1.27-1.1,1.77
		c-0.39,0.52-0.86,0.97-1.29,1.43c3.43,5.73,1.7,9.3-5.6,10.48c-4.21,0.68-8.58,0.55-12.88,0.55c-10.69,0-21.39-0.07-32.08-0.26
		c-2.86-0.05-5.86-0.25-8.51-1.19c-1.18-0.42-1.66-2.83-2.46-4.33c3.52-0.45,7.56,2.35,10.86-2.2c-0.09,1.27-0.14,2-0.2,2.82
		c1.56-0.25,2.82-0.45,5.07-0.82c-1.66-0.38-2.25-0.51-2.83-0.64c1.11-0.61,2.69-1.07,3.19-0.53c2.2,2.35,3.77,1.44,6.01-0.07
		c1.46-0.99,3.94-1.18,4.49,1.48c0.97-0.59,2.07-1.26,3.17-1.93c0.33,0.62,0.66,1.23,0.97,1.82c0.78-0.7,1.56-2.02,2.37-2.04
		c3.73-0.09,7.47,0.33,11.21,0.3c3.77-0.04,7.53-0.39,11.77-0.63c-0.72-0.53-0.92-0.81-1.14-0.82c-7.38-0.41-14.77-0.88-22.15-1.11
		c-2.36-0.07-4.75,0.43-7.11,0.79c-5,0.76-9.68-0.17-14.35-2.06c-4.61-1.86-10.06,1.14-11.23,5.76c-1.98,0.34-2.88-0.52-2.88-2.5
		c-0.06-16.02-0.2-32.05-0.13-48.07c0.01-2.13,1.06-4.25,1.67-6.56c-3.6-2.11-3.41-5.76-3.39-9.35c0.02-3.83,0.01-7.66-0.9-11.59
		c-0.2,1.04-0.52,2.07-0.58,3.11c-0.32,5-0.49,10.02-0.93,15.01c-0.07,0.75-1.47,1.28-1.9,2.11c-0.97,1.84-2.67,3.93-2.41,5.68
		c1.42,9.69,3.51,19.27,4.99,28.95c0.8,5.19,0.83,10.49,1.21,15.74c-0.32,0.14-0.64,0.29-0.95,0.43c-1.94-3.26-3.9-6.51-5.81-9.79
		c-0.89-1.53-1.67-3.12-2.52-4.68c-2.89-5.28-5.96-10.47-8.64-15.86c-2.76-5.56-5.7-10.97-9.29-16.05c-1.17-1.66-1.72-3.78-3.01-5.3
		c-0.96-1.13-2.62-2.16-4.05-2.29c-3.76-0.35-7.58-0.3-11.37-0.2c-2.89,0.08-3.61,1.47-3.62,4.6c-0.01,3.4,2.13,6.86-0.2,10.41
		c-0.68,1.03,0.51,3.18,0.54,4.82c0.06,2.81-0.08,5.62-0.19,8.43c-0.02,0.58-0.53,1.19-0.43,1.71c0.71,3.68,0.74,3.67-0.33,5
		c0.36,3.39,0.79,5.95,0.87,8.52c0.07,2.18-0.25,4.38-0.46,7.47c1.14,1.11,1.87,2.92-1.82,3.81c1.36,2.29,3.71,4.17,1,6.74
		c-0.21,0.2,0.68,1.32,0.52,1.84c-0.29,0.96-0.99,1.79-1.53,2.67c-2.18-2.39-3.9,0.34-5.82,0.43c-1.84,0.09-3.72-0.76-4.97-1.05
		c-3.52,0-6.54,0.01-9.56-0.01c-0.62,0-1.27-0.24-1.85-0.12c-2.44,0.5-4.86,1.1-7.81,1.79c1.21-2.15,2.62-3.48,2.44-4.56
		c-0.47-2.89,0.77-7.26-4.95-6.85c0-2.47,0-4.71,0-6.2c-0.92,1.33-1.72,3.39-3.22,4.46c-5.87,4.19-6.07,7.12-0.42,11.54
		c0.38,0.29,0.74,0.61,1.57,1.3c-7.98,0-15.42,0.15-22.85-0.07c-3.12-0.09-6.17-1.02-7.17-4.85c2.68-0.24,4.95,0.83,7.3-1.85
		c1.36-1.55,5.39-0.75,8.21-1.06c0.93-0.1,1.84-0.35,2.77-0.54c0.01-0.38,0.01-0.77,0.02-1.15c-5.93-0.77-11.85-1.54-17.91-2.33
		c-1.19-3.7,3.54-3.03,5.08-5.76c-2.02,0-3.47,0-4.54,0c0-2.51,0-4.49,0-7.68c2.47,2.94,4.24,5.04,6.47,7.67
		c3.06-4.35,6.29-8.95,9.36-13.32c1.04,2.3,2.06,4.54,3.07,6.78c0.58-0.11,1.17-0.22,1.75-0.33c0.13-1.81,0.27-3.62,0.4-5.43
		c0.37,0.08,0.74,0.15,1.1,0.23c-0.4,2.89-0.8,5.78-1.2,8.68c0.17,0.12,0.35,0.25,0.52,0.37c0.95-1.93,2.05-3.81,2.82-5.82
		c0.74-1.91,1.06-3.98,1.75-5.91c0.17-0.46,1.1-0.96,1.64-0.92c3.39,0.28,3.8-1.83,2.86-4.08c-1.49-3.57-1.09-8.64-6.01-9.85
		c-3.33-0.82-7.13-1.63-10.28-0.78c-3.64,0.97-6.79,3.76-10.15,5.77c0.43-1.04,0.95-2.32,1.47-3.6c-0.16-0.08-0.32-0.16-0.49-0.23
		c-1.33,1.71-2.67,3.42-4,5.13c-0.35-0.08-0.71-0.16-1.06-0.24c0.74-2.42,1.29-4.92,2.28-7.24c0.91-2.13,2.23-4.09,3.48-6.06
		c1.33-2.1,3.17-4,0.05-6.27c-0.61-0.44-0.29-2.22-0.31-3.38c-0.04-2.24-0.01-4.48-0.01-6.72c-0.4-0.03-0.79-0.06-1.19-0.09
		c-0.21,1.24-0.43,2.48-0.69,3.97c-1.74-2.43-1.77-8.66-0.2-10.39c0.27-0.29,0.96-0.45,1.34-0.32c0.35,0.12,0.74,0.7,0.76,1.09
		c0.09,1.53,0.04,3.07,0.41,4.59c-0.72-4.26,2.67-8.96-1.59-13.39c-0.24,1.21-0.41,2.06-0.61,3.07c-2.72-3.49-2.91-5.54-1-10.28
		c-0.8-0.68-1.63-1.4-3.19-2.74c1.81,0,2.88,0,4.21,0c-0.61-1.54-1.21-2.87-1.67-4.24c-0.43-1.3-0.72-2.65-1.07-3.97
		c1.11-0.28,2.3-0.26,3.03-0.84c1.35-1.06,2.43-2.47,3.62-3.74c-1.45-1.05-2.91-2.07-4.33-3.15c-1.84-1.4-3.64-2.85-5.62-4.41
		c4.76-3.28,8.61-5.93,12.73-8.78c0,0.03-0.11-0.81-0.23-1.66c0.26,0.22,0.51,0.43,0.77,0.65c2.26-2.16,4.51-4.33,6.77-6.49
		c-0.28-0.42-0.56-0.85-0.84-1.27c-2.6,1.47-5.2,2.95-7.79,4.42c-0.08-0.14-0.17-0.27-0.25-0.41c0.98-0.84,1.96-1.67,2.94-2.51
		c-0.18-0.41-0.36-0.82-0.54-1.23c-3.42,1.36-6.84,2.73-10.67,4.26c-0.31-1.49-0.81-3.5-1.06-5.55c-0.04-0.32,0.98-0.84,1.57-1.16
		c0.75-0.41,1.74-0.55,2.31-1.12c0.82-0.82,1.35-1.92,2-2.9c-1.26-0.23-2.51-0.54-3.78-0.67c-0.58-0.06-1.2,0.23-2.02,0.4
		c0.2-2.36,0.39-4.5,0.51-5.89c2.03-1.77,3.64-3.18,5.25-4.58c-1.46-0.37-2.92-0.75-4.73-1.21c1.06-2.14,2.19-4.41,3.31-6.69
		c0.3,0.16,0.59,0.32,0.89,0.48c-0.34-1.97-0.69-3.94-1-5.72c-1.28-1.3-2.63-2.66-4.81-4.88c1.99,0.4,2.83,0.57,3.73,0.75
		c0.27-1.02,0.53-2.03,0.79-3.01c-1.23,0-2.33,0-3.43,0c-0.01-0.33-0.03-0.66-0.04-0.99c1.11-0.74,2.22-1.47,3.39-2.25
		c-2.85-2.76-2.64-2.64-0.5-6.2c0.58-0.97-0.52-2.97-0.91-4.49c-0.93-3.63-1.95-7.23-2.8-10.88c-0.13-0.55,0.42-1.77,0.78-1.82
		c1.48-0.23,3.24-0.61,4.45-0.01c1.43,0.71,2.4,2.37,3.93,4.01c0.64-0.51,1.78-1.02,2.32-1.91c1.9-3.1,3.51-3.32,5.22,0.1
		c0.2,0.39,0.83,0.57,1.01,0.69c1.91-1.12,3.75-2.02,5.39-3.2c1.78-1.27,3.46-0.13,4.06,0.83c0.83,1.33,1.28,3.21-1.31,4.31
		c-4.02,1.71-6.63,4.53-4.91,9.49c0.2,0.58-0.67,1.48-0.91,2.28c-0.54,1.8-1,3.63-1.72,6.32c4.26-2.22,7.64-3.97,11.12-5.78
		c-0.72-0.23-1.66-0.53-3.58-1.13c2.74-0.98,4.74-1.7,7.5-2.69c-1.51-0.65-2.25-0.96-3.46-1.47c5.38-2.04,10.18-3.86,14.98-5.68
		c-0.08-0.42-0.16-0.85-0.24-1.27c-3.08-0.65-6.17-1.3-9.25-1.94c-0.03-0.44-0.05-0.88-0.08-1.33c2.35-0.29,4.7-0.6,7.06-0.86
		c3.28-0.36,6.56-0.68,10.12-1.05c0-0.01,0.07,0.47,0.15,0.94c0.25,1.48,0.51,2.95,0.77,4.43c1.72-0.55,3.48-1,5.15-1.68
		c1.33-0.55,2.5-1.52,3.85-2.02c0.32-0.12,1.06,0.9,1.49,1.29c1.66-0.79,3.37-1.6,5.33-2.53c0.47,1.37,1.15,2.64,1.32,3.99
		c0.52,3.95-0.03,4-4.09,3.88c-4.99-0.15-9.24,0.67-10.1,5.51c-0.24,1.34,0.18,3.23,1.04,4.21c0.7,0.79,2.59,0.96,3.83,0.72
		c2.06-0.4,3.19-1.26,0.87-3.35c-0.97-0.87-0.9-2.89-1.21-4.02c1.34-0.23,2.04-0.28,2.68-0.49c0.26-0.08,0.42-0.51,0.62-0.77
		c1.93,4.56,3.98,0.26,5.64-0.18c6.51-1.71,12.85-3.49,19.77-2.07c1.15,0.24,1.91,3.84,3.65,0.82c0.75,0.92,1.5,1.84,2.21,2.71
		c0.46-0.53,0.93-1.08,2-2.31c-0.29,1.77-0.43,2.64-0.68,4.2c1.47-0.71,2.47-1.08,3.3-1.69c0.2-0.14-0.07-1.52-0.31-1.58
		C658.73,433.79,656.57,433.45,654.42,433.06z M655.63,559.58c0.64,1.56,1.29,3.12,1.93,4.68c1.39-0.88,2.78-1.75,3.64-2.3
		c-1.37-1.54-2.16-2.42-3.06-3.43c-0.44,0.12-1.3,0.37-2.17,0.61c0.71-2.87-1.51-3.22-3.36-3.69c-0.72-0.18-2.1,0.06-2.29,0.49
		c-0.35,0.81-0.32,2.04,0.08,2.83c0.25,0.49,1.44,0.6,2.23,0.7C653.63,559.6,654.64,559.55,655.63,559.58z M636.46,517.19
		c-0.2,0.27-0.4,0.53-0.59,0.8c0.33,1.8,0.67,3.6,1.04,5.56c3.95-3.19,3.95-3.19,2.1-9.27c0,1.73,0,3.47,0,6.09
		c-0.65-1.14-0.95-1.44-0.96-1.75c-0.05-1.67-0.02-3.35-0.02-5.03c-0.14-0.04-0.28-0.08-0.42-0.12
		C637.22,514.72,636.84,515.95,636.46,517.19z M707.3,572.33c-3.19-2.91-6.91-4.79-10.88-2.24c-3.47,2.23-3.3,6.01-2.33,9.41
		c1.65,0,3.05,0,3.77,0c0.4-1.92,0.35-3.71,1.17-4.92c0.6-0.89,2.68-1.75,3.48-1.36c2.07,1.01,3.21-0.35,4.67-1.02
		c0.65,0.52,1.3,1.03,2.96,2.36c0.68-5.92,1.27-10.95,1.85-15.98c-0.4-0.06-0.8-0.13-1.2-0.19c-0.57,1.43-1.15,2.86-1.76,4.37
		c-1-0.81-1.77-1.43-2.53-2.05C706.79,564.69,707.04,568.51,707.3,572.33z M601.2,583.84c0.27,6.35,0.46,12.7,0.89,19.03
		c0.07,0.97,1.26,1.86,1.93,2.78c0.59-0.86,1.76-1.77,1.69-2.57c-0.59-6.64-1.41-13.25-2.17-19.87c3.94-2.53,3.9-3.29,0.45-5.67
		c-1.72-1.19-2.94-3.1-4.39-4.68c-0.22,0.07-0.44,0.15-0.66,0.22c0.71,1.25,1.42,2.49,2.11,3.7c-0.74,1.62-1.7,3.16-2.12,4.84
		C598.57,583.14,598.7,584.91,601.2,583.84z M576.63,461.72c0.31,1.38,0.23,3.07,1.03,4.05c1.09,1.34,3.12,3.25,4.26,2.97
		c3.48-0.87,6.82-2.5,8.06-6.53c0.67-2.19,0.35-3.75-2.15-3.81c-3.3-0.08-5.09-1.72-6.03-4.71c-0.11-0.35-0.9-0.48-1.38-0.72
		c2.82,2.74,0.92,4.52-0.95,6.27c-0.95,0.89-1.95,1.72-2.93,2.58c0-2.08,0-4.17,0-7.07c-0.6,3.28-1.06,5.74-1.51,8.2
		c-0.25,0.02-0.51,0.04-0.76,0.05c-1.25-4.46-2.49-8.92-3.82-13.66c0,4.22,0,8.22,0,12.22c-0.17,0.01-0.34,0.01-0.5,0.02
		c-0.44-4.36-0.88-8.72-1.33-13.07c-0.31,0.03-0.62,0.07-0.93,0.1c1.09,11.9,2.18,23.79,3.26,35.5c3.22-0.31,5.59-0.54,7.97-0.76
		c-5.22,0.12-1.93-4.37-4.56-6.37c3.39,1.08,6.72-3.04,8.28,2.08c0.37-2.2,1.12-5.6,0.23-6.1c-2.54-1.44-5.76-1.7-9.68-2.66
		C574.12,467.96,575.37,464.84,576.63,461.72z M626.43,518.46c6.75,0.67,4.42-6.82,8.36-9.31c0.52,1.23,0.96,2.27,1.39,3.3
		c4.69-4.05,4.69-4.05,5.37-2.27c0.66-1.35,1.28-2.63,1.96-4.01c0.64,0.55,1.25,1.09,1.87,1.63c2.74-3.75,6.37-4.1,8.87-0.98
		c-1.09,0.88-2.75,1.55-3.15,2.68c-0.6,1.65-0.51,3.64-0.26,5.43c0.09,0.65,1.86,1.77,2.19,1.57c3.17-1.93,6.2-4.1,9.29-6.22
		c-0.6-0.87-0.97-1.4-1.44-2.08c5.09-3.59,10.17-7.19,15.26-10.78c-2.79-3.59-2.58-5.09,0.95-6.18c-0.99-2.58-1.98-5.15-2.97-7.74
		c0.28-0.11,0.9-0.38,1.92-0.8c-2.2-1.59-5.36-2.69-2.45-5.35c-0.6-0.58-1.27-1.13-1.83-1.78c-2.33-2.74-4.1-6.66-7.06-8.02
		c-4.95-2.28-10.62-3.11-16.06-4.17c-1.42-0.28-3.55,1.66-4.61,1.12c-5.59-2.86-10.73,0.24-16.21,0.45c0,14.16,0,28.11,0,42.25
		c0.83-0.56,1.21-1,1.66-1.08c0.42-0.08,0.91,0.22,1.46,0.37C627.58,510.23,625.82,514.99,626.43,518.46z M599.17,570.15
		c0.44,0.29,0.88,0.58,1.32,0.86c4.68-6.89,8.91-14.67,20.08-10.65c-0.54-3.53-0.71-7.13-1.75-10.46c-0.58-1.83-2.64-3.19-4.04-4.76
		c-0.52,0.24-1.04,0.48-1.56,0.71c0.32,1.45,0.62,2.91,0.96,4.36c0.24,1.01,1.06,2.55,0.7,2.89c-0.89,0.84-2.3,1.56-3.51,1.56
		c-2,0-4-0.6-5.62-0.88c-0.53-1.94-1.02-3.75-1.62-5.96c1.38-0.29,2.73-0.58,4.13-0.88c-0.68,1.75-1.2,3.07-1.92,4.91
		c4.19-1.25,6.13-5.24,5.75-10.27c-0.21-2.77-1.06-3.12-3.65-1.56c0.78,0.72,1.58,1.47,2.39,2.21c-4.8,0.93-9.22,0.86-13.63,0.95
		c-3.83,0.08-5.7,2.54-4.74,6.02c1.9-3.53,2.25-3.67,6.16-2.25c-6.19,4.71-5.44,11.43-5.98,19.08c3.51-2.76,6.15-4.83,9.44-7.42
		C600.95,563.08,600.06,566.62,599.17,570.15z M691.12,511.95c-0.15,0-0.31,0-0.47,0c0,4.28,0,8.57,0,12.9
		c-0.33-0.81-0.69-1.71-1.06-2.6c-0.32-0.78-0.65-1.56-0.97-2.34c0.49,4.54,3,9.24-1.72,13.16c-0.46,0.38-0.19,1.76-0.11,2.67
		c0.59,7.25,1.18,14.5,1.84,21.74c0.6,6.68,1.29,13.36,1.93,20.03c3.06-15.26,1.66-30.93,5.53-46.23
		c-3.92-3.04-0.51-7.78-1.84-11.65c-0.36,1.23-0.72,2.46-1.08,3.68c-0.25-0.05-0.51-0.09-0.76-0.14
		C691.97,519.44,691.55,515.69,691.12,511.95z M695.36,508.75c0.25-0.14,0.5-0.28,0.75-0.43c-1.35-4.58-2.6-9.19-4.08-13.72
		c-2.68-8.23-5.45-16.43-8.33-24.6c-0.31-0.89-1.63-2.16-2.32-2.07c-3.03,0.41-3.86-1.76-5.11-3.64c-0.58-0.87-1.43-1.56-2.92-3.14
		c0.81,2.37,1.2,3.52,1.8,5.28c-3.11-3.24-5.72-5.97-8.33-8.7c-0.21,0.21-0.41,0.42-0.62,0.64c3.17,3.59,6.35,7.17,9.63,10.88
		c-1.96,3.02-1.13,5.51,0.53,8.71c1.76,3.41,5.88,5.11,6.25,9.42c0.05,0.63,2.17,1.08,4.19,2.01c1.64,6.02,3.59,13.16,5.84,21.4
		c0.31-1.97,0.44-2.78,0.64-3.99C694.18,507.63,694.77,508.19,695.36,508.75z M717.43,447.37c-7.31-5.86-9.42-3.69-14.41-1.61
		c-4.46,1.86-5.4,5.95-5.33,10.6c0.08,5.27,0.78,6.19,6.25,5.67c0,0.26,0.03,0.51-0.01,0.76c-0.04,0.29-0.14,0.58-0.17,0.67
		C714.44,463.84,717.4,457.05,717.43,447.37z M607.72,529.22c-0.62-3.68-0.94-7.44-2-10.97c-0.43-1.42-2.3-2.83-3.83-3.38
		c-1.86-0.68-3.63,0.13-4.61,2.29c-2.56,5.64-3.14,11.5-1.23,17.28c0.56,1.7,3.16,3.15,5.14,3.84c2.64,0.92,4.46-0.88,5.28-3.34
		C607.06,533.13,607.3,531.2,607.72,529.22z M712.62,471.16c-1.01,7.44-1.02,7.44-4.3,13.22c-0.18,0.32-0.27,0.73-0.31,1.1
		c-0.29,2.85-0.51,5.7-0.82,8.55c-0.7,6.41-1.57,12.81-2.14,19.24c-0.52,5.85-0.74,11.72-1.09,17.59c0.38,0.05,0.76,0.1,1.14,0.16
		c0.8-3.98,1.59-7.96,2.42-11.94c2-9.58,3.61-19.26,6.23-28.67c1.15-4.14,0.4-8.21,1.33-12.25c0.58-2.52,0.11-5.28,0.11-8.3
		c-0.58,2.85-1.1,5.41-1.63,7.96c-0.31-0.05-0.63-0.1-0.94-0.16C712.62,475.49,712.62,473.32,712.62,471.16z M646.54,527.91
		c0.13-1.45,0.26-2.91,0.39-4.37c-1.37,0.26-2.74,0.49-4.1,0.81c-0.48,0.12-0.91,0.47-1.36,0.72c-3.34,1.89-4.41,4.62-3.29,8.97
		c0.89,3.47,3.21,1.23,5.01,1.14c0.58-0.03,1.2,0.68,1.79,0.66c1.53-0.06,3.41,0.16,4.52-0.61c3.16-2.2,6.04-4.8,8.94-7.36
		c0.34-0.3,0.33-1.57-0.01-1.96c-0.73-0.83-1.74-1.49-2.76-1.94c-0.19-0.08-0.93,1.18-1.48,1.77c-0.7,0.75-1.39,1.94-2.23,2.07
		C650.08,528.12,648.1,527.91,646.54,527.91z M612.44,460.73c-2.15,10.39-2.47,20.49-0.67,31.36c1.43-1.42,3.2-2.34,3.31-3.44
		c0.47-4.48,0.39-9.01,0.6-13.52c0.21-4.35,0.52-8.7,0.79-13.05c0.32,0.01,0.65,0.01,0.97,0.02c0.15,1.69,0.3,3.39,0.44,5.08
		c-0.87-3.96,3.18-8.77-1.77-12.29c-0.51,0.88-1.02,1.5-1.26,2.22c-0.56,1.67-0.99,3.38-1.53,5.29
		C613.07,461.89,612.91,461.59,612.44,460.73z M730.29,473.25c-3.86-0.17-7.2,2.9-7.39,6.8c-0.17,3.64,2.92,7.08,6.57,7.3
		c3.82,0.23,7.99-3.38,8.21-7.1C737.9,476.8,734.33,473.43,730.29,473.25z M679.3,512.07c0.01-3.66-3.81-7.3-7.7-7.33
		c-3.15-0.02-6.77,3.59-6.82,6.82c-0.06,3.45,3.69,7.59,6.99,7.74C674.71,519.43,679.29,515.02,679.3,512.07z M662.43,527.63
		c-0.06,4.32,3.23,8.21,6.99,8.29c3.31,0.06,6.71-3.41,6.82-6.97c0.12-3.87-3.42-7.8-6.97-7.73
		C665.71,521.28,662.48,524.31,662.43,527.63z M573.69,532.74c0.05,4.1,3.25,7.21,7.42,7.22c3.2,0.01,6.56-3.51,6.61-6.92
		c0.06-3.88-3.1-7.11-6.98-7.13C576.18,525.89,573.64,528.35,573.69,532.74z M623.08,498.42c0-4.44-2.34-7.06-6.34-7.07
		c-3.54-0.01-6.88,3.37-6.92,7.01c-0.04,3.59,3.27,7,6.81,7.04C620.7,505.45,623.08,502.86,623.08,498.42z M714,513
		c1-0.26,2.53-0.86,4.1-0.99c1.5-0.13,3.05,0.29,4.57,0.34c2.9,0.09,3.96-1.68,2.67-4.64c-1.3-2.98-5.13-5.62-1.17-8.44
		c-2.05,0.83-4.39,2.42-6.86,2.65c-4.4,0.4-4.07,3-3.72,5.99C713.8,509.56,713.87,511.24,714,513z M595,467.27
		c-0.98,0.94-1.78,2.04-2.86,2.66c-2.38,1.38-3.44,3.14-1.91,5.65c1.47,2.41,3.47,3.97,6.44,2.29c1.75-0.99,3.64-1.92,5.05-3.29
		c0.98-0.96,1.57-2.6,1.73-4c0.07-0.58-1.35-1.65-2.27-1.95c-1.47-0.48-3.08-0.5-4.57-0.71c-0.86-1.25-1.77-2.57-2.69-3.88
		c-0.2,0.12-0.39,0.24-0.59,0.37C593.85,465.31,594.38,466.21,595,467.27z M703.4,585.8c-4.27-3.63-14.94-1.44-17.07,3.48
		c-0.26,0.6-0.24,1.64,0.11,2.15c2.04,2.91,9.57,3.16,10.91-0.06C698.64,588.28,701.28,587.53,703.4,585.8z M587.32,509.41
		c0.32-1.62,0.6-2.91,0.81-4.21c0.1-0.59,0.27-1.32,0.02-1.78c-1.62-3.06,0.33-5.72,0.79-8.55c0.16-0.97-0.57-2.09-0.38-3.04
		c0.2-0.97,1.34-1.76,1.51-2.74c0.47-2.59-1.23-5.74,2.15-7.59c0.14-0.08-0.51-1.59-0.87-2.66c-5.1,4.66-7.97,9.61-5.97,16.43
		c0.42,1.44,0.14,3.12,0.08,4.68c-0.16,4.03-0.37,8.06-0.56,12.08c0.26,0.08,0.52,0.17,0.78,0.25
		C586.32,511.17,586.96,510.05,587.32,509.41z M619.58,509.73c-0.07-0.1-0.28-0.58-0.64-0.86c-1.69-1.34-3.61-2.15-5.61-0.87
		c-2.43,1.55-5.53,2.88-4.48,6.69c0.25,0.92,1.27,2.14,2.11,2.3C613.97,517.55,619.39,513.09,619.58,509.73z M698.12,492.36
		c0.54-0.08,1.08-0.16,1.63-0.25c0.6-5.06,1.34-10.1,1.7-15.17c0.09-1.23-1.05-2.55-1.62-3.83c-0.87,1.14-2.3,2.18-2.5,3.43
		c-0.52,3.17-0.72,6.43-0.61,9.64C696.78,488.25,697.62,490.3,698.12,492.36z M651.01,453.64c0.07-0.63,0.13-1.27,0.2-1.9
		c-6.65-0.37-13.31-0.91-19.97-0.97c-1.7-0.01-3.41,1.53-5.12,2.35c0.13,0.17,0.26,0.35,0.38,0.52
		C634.68,453.64,642.85,453.64,651.01,453.64z M654.75,548.78c-0.32,1.94,1.55,2.59,3.39,1.8c2.17-0.93,4.16-2.52,5.92-4.15
		c2.41-2.22,0.8-3.77-1.43-4.52C659.29,540.78,654.79,544.36,654.75,548.78z M712.79,583.37c-1.65-7.32,4.32-5.11,7.63-7.05
		c-1.93-1.54-4.21-3.48-5.85-3.04c-3.3,0.89-5.24,3.7-4.72,7.76c-1.85-0.64-3.44-1.2-5.03-1.75c-0.08,0.22-0.16,0.44-0.24,0.66
		C707.04,580.97,709.49,582,712.79,583.37z M600.42,481.66c-4.25,6.05-1.33,12.24-1.32,18.23c1.69-5.13,2.74-10.37,3.51-15.66
		C602.71,483.59,601.37,482.73,600.42,481.66z M640.78,443.35c-1.36-2.93-2.49-5.37-3.63-7.82c-3.52,1.54-5.41,5.26-3.35,8.42
		C636.37,447.89,638.49,443.46,640.78,443.35z M650.98,435.21c-2.42,1.22-2.38,4.15-1.53,6.83c0.3,0.96,2.5,1.72,3.88,1.82
		c1.09,0.07,2.25-1.02,3.39-1.59c-0.77-0.93-1.54-1.86-2.3-2.79C653.34,438.15,652.28,436.83,650.98,435.21z M723.02,600.15
		c-4.23-0.4-4.5-3.65-6.47-5.74c1.26,0.1,2.14,0.17,3.01,0.24c-0.01-0.5-0.02-0.99-0.04-1.49c-1.38,0.17-3.92,0.21-3.96,0.54
		c-0.3,2.63-1.11,5.95,0.12,7.83C717.65,604.51,720.17,601.71,723.02,600.15z M733.45,595.02c-2.11,0.02-3.59,1.06-3.35,3.36
		c0.19,1.87,1.21,5.25,1.68,5.22c2.34-0.15,4.63-1.21,6.94-1.96c-0.17-0.59-0.34-1.18-0.51-1.77c-1.4,0.26-2.8,0.53-4.04,0.76
		C733.97,599.09,733.75,597.4,733.45,595.02z M612.35,537.44c0.25,0.11,0.51,0.23,0.76,0.34c3.25-1.38,6.5-2.76,10.45-4.44
		c-1.99-0.28-3.07-0.42-5.08-0.7c2.26-0.97,3.66-1.58,5.07-2.18c-0.07-0.39-0.14-0.78-0.21-1.16c-2.01,0.19-4.68-0.35-5.88,0.73
		C615.29,531.98,614.01,534.91,612.35,537.44z M612.16,575.55c2.22-0.19,4.11-0.26,5.95-0.6c0.29-0.05,0.48-1.31,0.48-2
		c0-0.41-0.59-1.2-0.73-1.16c-3.09,0.89-6.39,1.47-8.39,4.38c-0.32,0.46-0.46,1.3-0.27,1.81c0.6,1.65,1.39,3.23,2.32,5.29
		c0.84-1.79,1.68-3.57,2.48-5.28C613.56,577.41,612.79,576.38,612.16,575.55z M631.76,546.05c5.53,0.48,10.97,0.96,16.4,1.44
		c0.07-0.57,0.15-1.14,0.22-1.71c-4.1-0.94-8.18-2.17-12.33-2.64C634.78,542.99,633.27,544.97,631.76,546.05z M728.27,456.12
		c-0.28-2.79-0.46-5.59-0.91-8.36c-0.16-0.96-0.85-1.95-1.55-2.66c-0.32-0.33-1.77-0.22-1.86,0.02c-0.42,1.13-1.01,2.5-0.7,3.54
		c0.56,1.86,2.87,3.96,2.42,5.22C724.41,457.32,727.35,455.61,728.27,456.12z M612.59,531.46c2.13-2.32,3.78-3.63,4.6-5.34
		c0.22-0.46-2.14-3.08-3.23-3.02c-1.43,0.08-3.66,1.65-3.9,2.89C609.8,527.36,611.4,529.09,612.59,531.46z M691.63,596.87
		c-0.06,0.17-0.12,0.34-0.19,0.5c-0.78,0-1.59-0.15-2.32,0.04c-0.84,0.22-1.6,0.75-2.39,1.14c0.62,0.79,1.14,1.68,1.88,2.33
		c0.44,0.39,1.23,0.6,1.83,0.54c1.98-0.2,3.96-0.5,5.9-0.94c0.26-0.06,0.51-1.6,0.41-1.64C695.08,598.11,693.35,597.5,691.63,596.87
		z M719.7,570.03c1.75-2.02,2.88-3.33,4.02-4.65c-1.04-0.78-2.36-2.41-3.05-2.18c-1.46,0.5-2.77,1.83-3.71,3.14
		C716.75,566.63,718.31,568.2,719.7,570.03z M609.64,468.09c-0.25,0.04-0.49,0.07-0.74,0.11c0,7.48,0,14.96,0,22.44
		c0.25,0,0.49,0,0.74,0C609.64,483.12,609.64,475.6,609.64,468.09z M595.19,537.04c-5.82-1.42-8.21,0.5-7.52,5.97
		C590.28,540.94,592.41,539.24,595.19,537.04z M714.5,548.62c-0.18-0.4-0.35-0.8-0.53-1.21c-4.06-1.41-6.6,0.9-8.79,4.04
		c0.17,0.4,0.34,0.79,0.51,1.19C708.62,551.3,711.56,549.96,714.5,548.62z M676.66,523.68c2.59-0.75,4.47-1.16,6.21-1.9
		c0.49-0.21,0.92-1.45,0.77-2.06c-0.13-0.55-1.11-1.26-1.71-1.26C679.2,518.45,677.5,519.86,676.66,523.68z M736.14,490.96
		c-2.72-2.11-4.85-1.17-6.61,0.74c-0.29,0.31,0.42,2.33,1.04,2.56C733.67,495.42,734.63,492.86,736.14,490.96z M620.04,525.12
		c0.4,0.41,0.8,0.83,1.2,1.24c1.57-1.38,3.15-2.76,4.72-4.14c-0.68-0.6-1.43-1.77-2.01-1.69
		C621.34,520.89,619.89,522.45,620.04,525.12z M689.54,580.13c-0.06-0.56-0.11-1.12-0.17-1.68c-1.55,0-3.37-0.5-4.58,0.14
		c-1.14,0.61-1.65,2.41-2.44,3.69c0.35,0.28,0.7,0.55,1.05,0.83C685.45,582.12,687.5,581.12,689.54,580.13z M684.73,549.23
		c-0.42,0-0.85,0.01-1.27,0.01c-0.5,0.98-1.53,2.06-1.36,2.91c0.25,1.28,1.33,2.41,2.05,3.6c0.81-0.82,2.31-1.68,2.27-2.47
		C686.36,551.91,685.35,550.58,684.73,549.23z M679.29,438.39c0.42,0.15,0.84,0.3,1.26,0.45c5.17-3.68,5.5-4.72,1.63-6.97
		C681.2,434.09,680.24,436.24,679.29,438.39z M701.82,594.18c-0.09,0.43-0.19,0.85-0.28,1.28c0.81,0.34,1.74,1.13,2.42,0.95
		c3.05-0.79,7.17-0.12,7.73-5.51c-1.76,1.26-3.04,2.67-4.62,3.17C705.48,594.58,703.59,594.18,701.82,594.18z M628.36,530.86
		c0.41,0.33,0.82,0.66,1.23,0.99c1.68-1.22,3.36-2.44,5.04-3.66c-0.12-0.48-0.23-0.96-0.35-1.45c-1.43,0-3.24-0.53-4.18,0.14
		C629.09,527.62,628.91,529.49,628.36,530.86z M695.7,564.46c0.41,0.3,0.81,0.6,1.22,0.9c1.5-1.05,3.01-2.09,4.51-3.14
		c0.01-0.38,0.03-0.75,0.04-1.13c-1.1-0.25-2.71-1.07-3.2-0.63C697.13,561.47,696.53,563.09,695.7,564.46z M580.82,523.01
		c0.24-0.19,0.49-0.39,0.73-0.58c-0.28-1.6-0.34-3.29-0.89-4.79c-0.46-1.25-1.51-2.28-2.29-3.41c-0.46,0.31-0.92,0.62-1.38,0.93
		C578.26,517.78,579.54,520.4,580.82,523.01z M687.99,459.56c-5.2-2.48-6.1-2.17-7.18,1.78
		C683.31,460.72,685.65,460.14,687.99,459.56z M691.07,439.05c1.05-1.28,2.29-2.78,3.86-4.69c-1.88-0.35-3.62-0.67-5.49-1.02
		C690.16,435.87,690.64,437.54,691.07,439.05z M663.68,445.38c3.32-6.23,3.32-6.23,2.77-7.6
		C665.59,440.14,664.63,442.76,663.68,445.38z M620.13,606.93c0.51-4,1.05-8.18,1.56-12.16
		C619.85,595.66,618.79,603.39,620.13,606.93z M710.04,520.18c0.52,0.46,1.04,0.91,1.56,1.37c1.25-1.51,2.49-3.02,3.74-4.53
		c-0.51-0.44-1.02-0.88-1.53-1.32C712.55,517.19,711.3,518.68,710.04,520.18z"/>
	<path class="st0" d="M463.7,591.09c-4.34-0.74-2.91-5.18-4.79-7.51c-0.36-0.44-0.37-1.16-0.26-0.77
		c-4.02-0.33-7.47-0.87-10.92-0.82c-3.21,0.05-6.4,0.92-9.62,1.06c-1.92,0.08-3.9-0.46-5.81-0.9c-2.15-0.5-4.05-1.35-6.25,0.53
		c-0.75,0.64-3.1-0.59-5.37-1.12c-3.97,0.79-8.67,1.51-13.67,0.08c-1.74-0.5-4.24-0.32-5,3.21c-1.21,5.61-0.95,11.91-5.7,16.39
		c-0.31,0.29,0.82,1.83,0.57,2.52c-1.23,3.32-2.7,6.55-3.35,10.03c-0.41,1.68-0.3,3.99-1.37,4.89c-1.37,1.15-3.66,1.32-5.6,1.61
		c-1.69,0.26-3.45,0.06-5.17,0.14c-2.45,0.12-4.9,0.46-7.35,0.45c-5.14-0.03-10.27-0.3-15.4-0.32c-6.16-0.02-12.34,0.33-18.49,0.05
		c-1.68-0.08-3.46-1.67-4.87-2.93c-1.84-1.65-1.47-3.38,0.53-4.85c0.27-0.2,0.06-1.05,0.06-1.6c-0.02-2.29-0.04-4.17,1.61-6.48
		c1.87-2.61,1.77-6.63,2.54-10.08c0.92,0.03,3.15,1.9,2.21-1.76c-0.58-2.25-0.23-4.75-0.28-7.14c-0.01-0.39-0.01-1.07,0.13-1.12
		c3.9-1.22,2.59-5.24,4.2-7.6c1.4-2.07,3.29-4.07,5.42-5.32c4.48-2.62,4.7-4.12,3.11-8.89c-1.01-3.04-0.12-6.72,0.02-10.11
		c0.01-0.18,1.06-0.32,1.57-0.46c0.3-3.77,0.63-7.9,0.96-12.02c-0.19,0.05-0.38,0.1-0.57,0.15c0.99-1.74,1.99-3.49,2.97-5.22
		c3.94,2.35,9.37,0.31,10.38-4.21c0.11-0.5,0.41-1.19,0.2-1.51c-4.05-5.98-0.75-12.09-0.32-19.2c-0.9,2.79-1.72,4.56-2.01,6.42
		c-0.29,1.88-0.06,3.85-0.62,5.79c-0.36-4.13-1.47-8.37-0.86-12.35c0.58-3.79,2.96-7.29,5.16-10.78c-0.47,2.95-0.95,5.9-1.41,8.74
		c1.1-0.39,2.22-0.8,3.78-1.35c1.39-5.57,2.97-11.88,4.54-18.19c-0.23-0.24-0.46-0.48-0.7-0.72c-1.49,1.25-2.99,2.5-5.08,4.25
		c0.28-1.28,0.19-2.78,0.73-3.06c2.17-1.12,1.93-2.38,1.01-4.2c-0.38-0.75-0.01-1.87,0.03-2.83c1,0.05,2.12-0.2,2.97,0.19
		c3.74,1.68,7.47,0.31,9.47-3.93c-1.27,0.22-2.36,0.41-3.77,0.66c-0.71-4.38-3.44-3.07-6.2-1.7c-0.18-0.3-0.37-0.6-0.55-0.9
		c1.32-1.81,2.58-3.67,3.98-5.41c1.5-1.86,3.15-3.61,5.17-5.9c-1.66-0.14-2.63-0.19-3.58-0.3c-0.59-0.07-1.33-0.05-1.71-0.39
		c-0.24-0.21,0.04-1.02,0.09-1.56c0.67,0.2,1.35,0.41,1.97,0.6c-1.53-5.71-1.53-5.71,6.24-11.19c-2.05,0.11-3.48,0.18-5.81,0.3
		c0.91-1.25,1.36-2.56,2.17-2.83c2.84-0.98,5.83-1.53,8.72-2.38c1.76-0.52,3.44-1.3,5.15-1.96c-0.19-0.56-0.37-1.11-0.56-1.67
		c-3.13,1.04-6.26,2.07-9.41,3.11c-0.81-2.12-2.35-4.15-1.95-5.67c0.36-1.35,2.86-2.13,4.42-3.17c3.25,0.89,6.5,1.78,10.13,2.78
		c-1.98,6.54,6.32,2.19,7.32,5.02c0.51-0.3,1.34-0.92,2.27-1.3c2.57-1.05,3.15-2.04,1.36-3.61c-2.87-2.52-2.54-5.3-1.15-8.98
		c-4.01,5.16-5.54,6.02-8.99,5.4c0.28-0.24,0.55-0.48,0.83-0.72c0.59-1.21,1.62-2.38,1.7-3.63c0.33-4.64-3.74-8.08-9.48-8.27
		c3.98-2.58,6.68,0.65,10.47,2.84c-0.75-2.06-1.19-3.26-1.9-5.2c4.7,2.76,9.75,3.33,10.91,9.43c0.45-0.45,0.9-0.9,1.35-1.35
		c-0.57-1.73-1.13-3.46-1.62-4.94c2.85-1.02,5.74-2.05,8.36-2.98c0.88,0.35,2.16,0.44,2.54,1.08c1.28,2.16,0.06,3.59-1.64,5.13
		c-3.11,2.83-5.91,5.99-8.84,9.02c0.4,0.4,0.79,0.8,1.19,1.2c3.84-3.38,7.68-6.75,11.5-10.15c0.88-0.78,1.75-1.59,2.5-2.49
		c2.64-3.14,6.33-2.83,9.85-3.02c0.48-0.03,1.43,0.7,1.42,1.05c-0.02,0.65-0.45,1.45-0.96,1.89c-1.53,1.34-3.46,2.31-4.73,3.84
		c-2.44,2.92-3.3,6.95-0.96,9.67c2.22,2.58,6.05,4.02,9.91,1.87c2.17-1.21,4.7-1.92,6.59-3.44c3.12-2.51,3.38-8.61,0.95-11.02
		c-0.81-0.81-1.52-1.85-1.87-2.92c-0.11-0.33,1.32-1.68,1.74-1.55c1.21,0.37,2.26,1.25,3.57,2.05c1.76-1.25,7.62,1.53,8.72,4.8
		c0.57-2.5,1.13-4.95,1.79-7.85c3.91,2.38,6.22,5.22,7.72,8.85c0.34,0.84,1.17,1.64,1.99,2.08c2.63,1.42,2.34,2.99,0.29,4.99
		c2.53,1.02,3.61,2.55,0.98,4.9c2.54,0.36,4.05,0.66,3.47,3.69c-0.31,1.62,1.42,3.62,2.67,5.09c0.18,1.65,0.22,3.34,0.57,4.95
		c0.81,3.71,0.86,7.56,3.39,10.91c0.91,1.2-0.08,3.83-0.22,6.23c2.99,1.26,3.17,4.4,3.54,7.78c0.28,2.56,1.61,5.01,2.54,7.49
		c0.34,0.9,0.87,1.73,1.49,2.94c0.88,4.28,1.79,8.69,2.69,13.1c-0.35,0.19-0.71,0.38-1.06,0.57c-3.07-2.44-6.31-2.33-8.81,0.13
		c-2.4,2.36-2.22,5.54-0.47,9.01c1.26-1.5,2.35-2.8,3.67-4.37c0.44,0.86,0.77,1.5,1.25,2.42c1.28-2.1,2.26-3.87,3.38-5.53
		c1.39-2.05,2.68-1.2,3.54,0.44c1.16,2.23-0.09,5.55,3.16,6.95c0.23,0.1-0.39,1.81-0.31,2.74c0.08,0.89,0.54,1.74,0.85,2.61
		c0.35,0.98,0.76,1.94,1.05,2.93c0.52,1.74,0.97,3.5,2.34,5.17c-0.43,1.13-0.87,2.25-1.38,3.58c5.03,1.25,2.25,5.2,2.39,8.37
		c2.97,0.4,5.43,1.25,3.65,5.06c-0.05,0.12-0.23,0.28-0.21,0.31c2.21,2.82,1.97,6.32,2.7,9.56c0.36,1.59,0.88,3.15,1.53,5.43
		c0.34,0.46,1.63,1.54,2.05,2.88c0.78,2.47,1.18,5.09,1.49,7.68c0.26,2.11,0.16,4.26,0.21,6.39c-0.41,0.13-0.81,0.26-1.22,0.39
		c1.43,0.22,2.85,0.43,4.57,0.69c-0.69,2.58-1.43,5.24,1.73,6.95c0.26,0.14-0.54,2.44-1.02,3.67c-0.24,0.61-0.86,1.07-1.3,1.6
		c0.61,0.14,1.24,0.22,1.81,0.45c0.76,0.31,1.94,0.59,2.13,1.15c1.04,3.08,1.91,6.23,2.7,9.38c0.95,3.81,1.36,7.82,2.77,11.45
		c1.39,3.57-1.71,8.2-6.51,8.4c-5.61,0.24-11.23,0.2-16.85,0.25c-3.9,0.03-7.8,0.14-11.69-0.04c-2.93-0.14-5.84-0.68-9.56-1.13
		c0.02-0.02-0.61,0.69-1.39,1.59c-3.4-4.14-9.6,2.24-12.67-3.6c3.19,1.05,5.56,1.14,6.08-3.29c0.16-1.35,2.61-2.43,4.03-3.64
		c-1.95-4.51-5.6-4.46-10.87,0.22c-1.53-1.92-3.05-3.84-4.83-6.07c-0.18-3.04,0.88-6.83-2.83-9.61c-0.73-0.55,0.01-3.04,0.08-4.64
		c1.02,0.9,1.9,2.22,3.09,2.63c3.32,1.15,6.9,2.93,10.1,2.47c1.91-0.27,4.15-4.08,4.74-6.65c1.58-6.85-3.97-11.43-10.58-9.33
		C466.45,581.53,464.2,584.59,463.7,591.09z M420.54,570.58c1.67-2.76,3.34-5.51,5.46-9c-2.49,0.47-4.28,0.82-5.78,1.1
		c-0.18,3.17-0.32,5.59-0.46,8.01c-0.96-0.39-1.91-0.79-3.63-1.49c3.9,3.4,4.17,5.57,2.28,10.13c2.14-3.05,4.28-6.11,6.47-9.25
		C423.41,570.25,421.97,570.42,420.54,570.58z M417.29,449.1c2.49-1.44,4.97-2.88,7.81-4.53c-1.34-0.43-2.4-0.98-3.49-1.08
		c-3.79-0.32-7.61,3.35-6.58,6.19c-0.54,0.74-1.35,1.41-1.55,2.23c-0.27,1.13-0.08,2.38-0.09,3.58c0.81-0.32,1.61-0.79,2.45-0.88
		c0.4-0.05,0.88,0.62,1.49,1.09c0.06-1.19,0.11-2.03,0.16-2.88c0.24,0.27,0.48,0.53,0.71,0.8c1.56-0.91,3.12-1.82,4.69-2.73
		c-0.04-0.33-0.08-0.67-0.12-1C420.94,449.62,419.12,449.36,417.29,449.1z M401.56,493.91c1.51-0.79,3.02-1.59,4.54-2.39
		c-2.51-4.61-5.13-5.25-11.01-2.22c0.38,2.34,0.78,4.81,1.26,7.81c1.9-1.34,2.83-2.01,3.76-2.67c-0.19,0.58-0.52,1.16-0.53,1.75
		c-0.03,2.12-0.72,4.79,0.29,6.22c1.02,1.45,3.84,2.44,5.75,2.26c2.66-0.24,3.89-2.56,3.88-5.42
		C409.49,494.51,407.91,493.4,401.56,493.91z M356.93,587.07c2.17-1.98,4.34-3.96,6.96-6.36c-2.62-0.63-5.08-1.6-7.57-1.68
		c-1.61-0.05-3.52,0.89-4.82,1.97c-1.58,1.31-2.97,3.09-3.76,4.96c-0.22,0.52,1.98,2.06,3.49,3.55c-0.56,0.21-1.81,0.33-2.41,1.01
		c-0.7,0.81-0.84,2.11-1.22,3.2c0.49,0.26,0.98,0.53,1.46,0.79c1.02-1.19,1.96-2.46,3.09-3.53c0.93-0.88,2.1-1.51,3.16-2.26
		c-0.28,1.16-0.56,2.31-0.84,3.47c0.33,0.25,0.66,0.51,0.98,0.76c1.6-1.46,3.19-2.92,4.79-4.38
		C359.14,588.07,358.03,587.57,356.93,587.07z M444.01,508.56c-0.43-1.68-0.32-4.06-1.41-4.92c-2.87-2.27-1.69-3.68,0.72-5.24
		c-0.99-0.48-1.64-0.8-2.19-1.07c2.24-1.4,4.27-2.66,6.3-3.93c-0.37-0.6-0.75-1.19-1.12-1.79c-1.3,0.83-2.52,1.84-3.92,2.44
		c-0.88,0.38-2.83,0.42-2.91,0.17c-0.86-2.75-1.44-5.59-2.2-8.83c-1.01-2.15-2.28-4.87-3.72-7.94c-1.26,1.16-4.4,3.21-4.11,3.96
		c1.32,3.48-1.38,5.62-2,8.36c-1.12,5.03-2.78,9.94-4.14,14.92c-0.75,2.75-1.13,5.62-2.06,8.31c-0.89,2.6-2.27,5.03-3.72,8.13
		c1.03,1.57,1.53,3.76-2.16,5.06c-0.73,0.26-1.5,1.56-1.53,2.41c-0.06,1.71,0.18,3.5,0.68,5.14c0.23,0.75,1.33,1.71,2.08,1.76
		c3.35,0.19,6.72,0.08,10.48,0.08c-1.72,4.22-3,8.23,1.91,10.85c3.09,1.65,5.6,0.29,7.47-2.03c3.23-4.01,0.05-6.78-2.37-9.29
		c4.4,0,8.69,0,12.63,0c-0.32,1.83-0.66,3.82-1.01,5.8c0.39,0.19,0.77,0.37,1.16,0.56c0.42-4.09,2.64-3.43,3.89-3.08
		c1.05,2.73,1.72,4.48,2.51,6.55c1.9-2.11,3.08-3.42,4.67-5.18c-1.29-0.48-2.6-0.63-3.42-1.35c-1.21-1.05-2.47-2.37-2.95-3.83
		c-0.56-1.7-0.31-3.67-0.41-5.52c1.93,0.91,3.4,3.76,6.04,1.64c-1.19-1.66-2.33-3.23-3.46-4.81c0.27-0.3,0.53-0.59,0.8-0.89
		c2.01,0.54,4.02,1.09,6.29,1.7c2.28-1.82,0.65-4.05-0.7-5.91c-0.25-0.34-2.62,0.85-4,1.34c-0.59,0.21-1.2,0.72-1.73,0.64
		c-3.96-0.63-4.36,1.69-4.03,4.68c-0.94-2.47-1.89-4.94-2.45-6.42c3.5-1.07,6.43-1.28,8.34-2.79c1.24-0.98,1.7-4.01,1.26-5.81
		c-0.84-3.47-3.95-4.02-7.15-3.78c-0.26,0.02-0.52-0.04-0.78-0.06c1.21-0.48,2.41-0.97,4.17-1.67c-1.39-1.59-2.65-3.02-3.87-4.41
		c0.32-0.15,0.92-0.44,1.71-0.82c-5.04-2.01-7.36-0.64-7.48,4.16C444.09,506.75,444.05,507.65,444.01,508.56z M469.45,478.21
		c0.3-0.07,0.6-0.14,0.89-0.22c-0.53-2.61-0.21-6.15-1.8-7.6c-2.24-2.04-5.9-2.54-8.95-3.7c-0.24,0.42-0.48,0.84-0.72,1.26
		c1.07,0.73,2.13,1.47,3.41,2.35c-2.44,0.24-4.69,0.58-6.94,0.62c-0.89,0.01-1.84-0.56-2.67-1.03c-1.17-0.66-2.78-2.36-3.26-2.06
		c-1.48,0.91-3.29,2.41-3.56,3.93c-0.53,3-0.46,6.22,0.02,9.25c0.54,3.4,1.82,6.68,2.94,10.6c2.25-2.47,2.82-5.85,6.34-3.3
		c0.44,0.32,3.07-1.25,3.62-2.44c1.82-3.93,3.16-8.1,4.7-12.24c0.42,0.96,0.89,2.04,1.29,2.96c1.27-1.33,2.42-2.54,4.12-4.32
		C469.14,474.92,469.29,476.56,469.45,478.21z M389.73,537c-0.34,0.32-0.68,0.65-1.02,0.97c0.83,0.69,1.85,1.26,2.45,2.11
		c0.75,1.06,1.87,2.59,1.57,3.49c-0.56,1.66-2.05,3-3.15,4.48c-0.44-0.35-0.88-0.7-1.33-1.05c0.85-0.98,1.7-1.96,2.84-3.27
		c-1.42-0.5-3.16-0.7-4.38-1.61c-2.57-1.91-4.47-1.1-6.42,0.83c-5.12,5.07-3.48,11.87-5.39,17.76c0.39,0.28,0.78,0.57,1.17,0.85
		c1.92-1.3,3.83-2.61,5.6-3.81c-0.42,2.53-0.87,5.16-1.51,9c2.29-1.72,3.71-2.58,4.88-3.71c2.62-2.53,5.01-5.29,7.68-7.76
		c3.18-2.95,3.23-4.15-0.19-6.89C396.38,542.19,395.25,537.57,389.73,537z M503.72,578.46c-0.01-6.56-4.16-10.6-10.38-11.02
		c-5.81-0.39-10.87,5.2-10.75,10.7c0.12,5.46,5.2,10.42,10.83,10.51C499.12,588.74,503.72,584.19,503.72,578.46z M479.93,506.13
		c-0.49,0.05-0.98,0.09-1.48,0.14c0.32,1.43,0.66,2.87,0.94,4.31c0.25,1.26,0.98,2.76,0.55,3.75c-1.03,2.38-2.73,4.47-3.92,6.79
		c-0.62,1.21-1.14,2.71-1.03,4.02c1.15,13.53,2.41,27.05,3.7,40.57c0.28,2.95,0.78,5.87,1.18,8.81c0.54-0.03,1.09-0.07,1.63-0.1
		c0-10.68-0.1-21.36,0.04-32.03c0.07-5.91,0.07-11.89,0.99-17.7c0.53-3.35,1.25-5.79-1.7-6.28
		C480.51,513.95,480.22,510.04,479.93,506.13z M462.08,561.52c-1.88,0.64-4.14,1.16-6.15,2.17c-3.31,1.67-5.02,5.35-3.66,8.09
		c1.62,3.27,4.89,1.9,7.25,1.52c3.13-0.51,5.97-2.33,6.2-6.07c0.1-1.61-0.48-3.27-0.75-4.91c-1.48-8.57,4.17-17.64-1.94-25.36
		c-1.04,1.64-2.3,3.21-3.09,5c-0.69,1.55-1.39,3.44-1.12,5.01C459.68,551.91,460.98,556.77,462.08,561.52z M388,524.29
		c-2.73,2.72-5.43,5.41-8.96,8.92c2.77-0.47,4.45-0.58,6.02-1.05c4.66-1.4,6.6-5.35,5.42-10.73c-1.12-5.11-3.8-7.35-8.81-6.41
		c-3.85,0.72-6.71,3.14-8.7,6.81c-1.62,2.98-1.45,5.2,1.12,7.15c0.91,0.69,2.25,0.81,3.4,1.19c0.21-0.98,0.42-1.95,0.64-2.93
		c0.55-2.45,0.17-5.7,3.38-6.38C384.11,520.31,387.77,518.92,388,524.29z M416.06,474.94c0.31,0.49,0.62,0.99,0.94,1.48
		c2.01-0.37,4.42-0.17,5.96-1.22c8.23-5.61,14.91-12.92,21.25-20.52c0.68-0.82,0.61-2.26,0.89-3.41c-1.12,0.14-2.42-0.01-3.32,0.51
		c-1.16,0.67-2.09,1.82-2.97,2.88c-4.49,5.43-8.68,11.09-15.16,14.53C420.88,470.66,418.57,473,416.06,474.94z M377.35,602.42
		c-5.05,3.39-11.8,4.84-8.89,13.94c4.31-1.8,8.53-3.36,12.51-5.38c0.96-0.49,1.14-2.51,1.68-3.83c-1.11-0.16-2.22-0.36-3.34-0.46
		c-0.86-0.08-1.74-0.02-2.64-0.02C376.89,605.28,377.09,604.07,377.35,602.42z M409.9,561.16c2.85-0.09,5.8-3.19,5.85-6.14
		c0.05-3.4-3-6.38-6.46-6.33c-3.13,0.04-6.1,2.76-5.98,5.46C403.46,557.7,406.81,561.26,409.9,561.16z M399.27,533.59
		c0.35-0.04,0.7-0.08,1.05-0.12c-0.16-2.36-0.29-4.72-0.49-7.08c-0.37-4.37-2.06-9.15-0.84-13.01c1.55-4.91-3.52-6.08-3.58-9.64
		c-0.01-0.56-1.14-1.11-1.79-1.62c-0.09-0.07-0.38,0.12,0.15-0.07c-0.54,3.15-1.17,5.87-1.4,8.61c-0.12,1.47,0.29,3.06,0.8,4.47
		c1.68,4.7,3.58,9.32,5.26,14.02C398.93,530.56,399,532.11,399.27,533.59z M472.06,489.89c0.47,0,0.94,0,1.41-0.01
		c2.22-11.29,4.44-22.57,6.66-33.86c-0.17-0.05-0.33-0.09-0.5-0.14c-0.72,2.07-1.44,4.13-2.2,6.32c-0.75-0.66-1.2-1.06-1.55-1.38
		c-0.35,1.89-0.05,4.69-1.15,5.43c-3.77,2.55-3.2,5.69-2.57,9.27c0.32,1.85-0.25,3.84-0.17,5.76
		C472.09,484.14,470.03,487.14,472.06,489.89z M503.66,554.9c-1.06,1.23-2.37,2.85-3.79,4.36c-1.65,1.75-3.41,3.59-1.4,5.96
		c1.57,1.85,3.53,3.16,6.03,0.86c0.84-0.77,2.32-0.83,3.48-1.29c1.44-0.57,2.86-1.22,4.28-1.83c-1.2-1.59-2.2-3.4-3.66-4.71
		C506.94,556.75,504.87,555.7,503.66,554.9z M512.54,609.45c-7.96,0.69-15.95,1.26-23.89,2.22c-1.28,0.16-2.34,2.12-3.5,3.25
		c1.47,0.2,2.99,0.73,4.41,0.55c5.57-0.7,11.1-1.73,16.67-2.43c2.23-0.28,4.52-0.05,6.77-0.05
		C512.83,611.63,512.72,610.84,512.54,609.45z M485.32,473.95c-3.86,9.48-7.39,19.09-15.47,26.98
		C477.57,500.91,487.1,483.79,485.32,473.95z M450.84,546.58c-3.64-2.37-6.17-5.47-10.23-3.24c-3.67,2.01-5.75,5.72-5.01,9.14
		c0.21,0.96,1.05,2.07,1.91,2.49c0.56,0.27,2-0.32,2.48-0.95C442.64,550.51,445.2,546.96,450.84,546.58z M394.8,464.96
		c-0.1,0.94-0.22,2.15-0.39,3.7c-1.34-0.86-2.39-1.54-3.09-1.99c0.42,6.53,0.84,13.03,1.31,20.19c1.33-0.57,3.6-0.95,3.73-1.71
		c0.68-3.95,1.25-8.02,1.01-11.99C397.19,470.34,395.67,467.61,394.8,464.96z M444.86,563.24c-0.12-0.39-0.24-0.79-0.36-1.18
		c-1.55,0-3.12-0.16-4.65,0.03c-3.06,0.38-6.06,3.63-5.84,6.7c0.1,1.34,1.08,3.4,2.11,3.74c4.21,1.36,7.68,0.12,8.84-2.79
		c-1.48-0.59-2.97-1.18-4.43-1.76c0.39-1.25,0.5-2.74,1.28-3.71C442.37,563.56,443.81,563.55,444.86,563.24z M386.36,575.46
		c-4.15,7.62-5.48,14.44-3.21,19.77c2.78-2.61,2.18-6.03,2.69-8.98c0.55-3.18,0.32-6.33,2.91-9.09c1.41-1.5,1.38-4.35,2.01-6.6
		c-0.46-0.19-0.92-0.39-1.38-0.58c-2.18,2.26-4.36,4.51-6.54,6.77c0.3,0.3,0.61,0.59,0.91,0.89
		C384.62,576.91,385.49,576.18,386.36,575.46z M373.1,601.25c-0.21-0.38-0.41-0.77-0.62-1.15c-1.91,0.88-3.82,1.75-5.73,2.64
		c-6.28,2.92-12.59,5.79-18.8,8.84c-0.92,0.45-1.41,1.81-2.09,2.75c5.84-1.83,10.87-4.22,15.89-6.62c1.11-0.53,2.25-1.72,3.25-1.6
		C369.32,606.64,369.91,602.11,373.1,601.25z M490.19,552.86c-1.23,1.25-3.31,2.69-4.4,4.67c-0.89,1.62-1.38,4.23-0.67,5.78
		c0.98,2.14,3.19,1.58,5.11,0.26c1.59-1.09,3.44-1.8,5.45-2.81C493.9,558.2,491.79,555.16,490.19,552.86z M408.35,491.87
		c6.88-0.41,8.89-1.93,10.33-7.84C410.3,480.85,407.15,483.25,408.35,491.87z M402.45,478.1c3.99-0.43,6.81-2.01,8.55-5.56
		c1.24-2.54-0.18-3.84-2.04-3.76c-2.27,0.09-5.15,0.68-6.55,2.19C400.84,472.65,399.99,475.6,402.45,478.1z M362.19,575.96
		c0.43-0.19,0.86-0.37,1.29-0.56c-0.7-3.61-1.4-7.21-2.1-10.82c2.31,1.01,2.38,3.28,2.61,5.42c0.26,2.44,0.41,4.89,0.61,7.34
		c0.45-0.04,0.91-0.09,1.36-0.13c-0.39-6.02-0.77-12.03-1.16-18.05c-0.43,0.02-0.85,0.04-1.28,0.06c-0.18,1.36-0.36,2.72-0.54,4.09
		c-0.31,0.09-0.61,0.18-0.92,0.27c-0.79-1.84-1.58-3.69-1.98-4.63c0,3.95-0.14,8.72,0.1,13.46
		C360.24,573.62,361.49,574.77,362.19,575.96z M420.79,505.67c0.34,0.04,0.67,0.09,1.01,0.13c0.34-1.8,1.4-3.88,0.83-5.31
		c-0.69-1.74-2.63-3.85-4.28-4.09c-1.71-0.25-4.08,1.18-5.46,2.57c-0.8,0.81-0.48,3.04-0.15,4.51c0.11,0.51,2.16,1.23,2.68,0.88
		c1.75-1.16,3.21-2.76,5.38-4.74C420.79,502.09,420.79,503.88,420.79,505.67z M471.54,531.36c-1.31-5.15-2.76-10.86-4.21-16.58
		c-0.22,0.07-0.45,0.13-0.67,0.2c1.63,9.61,3.25,19.21,4.83,28.54c3.61-6.42,0.83-13.39,0.05-20.28
		C471.54,526.2,471.54,529.16,471.54,531.36z M416.69,545.3c-0.35-6.38-6.11-9.69-11.04-6.83c-1.68,0.98-2.54,2.58-0.44,3.43
		C408.83,543.38,412.75,544.17,416.69,545.3z M502.57,592.25c-4.22,0.62-7.05,2.04-6.47,6.11c0.22,1.52,1.58,3.68,2.87,4.07
		c3.18,0.98,5.75-0.35,6.77-3.69c-1.97-0.37-3.8-0.72-6.21-1.17C500.56,595.75,501.45,594.21,502.57,592.25z M486.1,600.95
		c0.4-1.99,0.71-3.47,1.08-5.31c-4.45,0.81-6.22,3.31-6.81,6.65c-0.15,0.82,0.72,2.5,1.4,2.67c2.91,0.73,5.99,1.33,8.64-1.6
		C488.76,602.44,487.36,601.65,486.1,600.95z M448.92,453.66c2.18-0.16,3.29-0.38,4.38-0.3c1.06,0.08,2.1,0.46,3.14,0.71
		c0.1-1.49,0.73-3.24,0.16-4.41c-0.85-1.77-2.53-3.13-4.14-4.99C451.15,448.01,450.13,450.59,448.92,453.66z M515.05,594.35
		c-0.17-1.37-0.04-2.28-0.43-2.83c-0.26-0.37-1.71-0.49-1.83-0.27c-0.72,1.29-1.65,2.72-1.65,4.1c0,1.02,1.08,2.42,2.06,2.98
		c3.06,1.73,7.49-0.99,7.9-3.97C518.96,594.35,516.77,594.35,515.05,594.35z M378.66,569.43c-3.37-1.01-6.82,0.87-7.45,4.15
		c-0.15,0.77,0.21,1.77,0.64,2.48c0.2,0.32,1.57,0.42,1.7,0.21c1.06-1.81,4.9-1.47,3.83-4.98
		C377.25,570.84,378.2,570.07,378.66,569.43z M412.23,510.41c-2.02-1-3.7-1.83-5.9-2.92c-0.4,0.44-1.59,1.32-2.12,2.51
		c-0.33,0.74,0.03,2.41,0.65,2.82C407.46,514.54,411.32,512.85,412.23,510.41z M406.88,521.18c-2.37,0.81-4.15,2.33-3.16,6.57
		c2.31-0.57,4.55-1.13,6.82-1.69C409.08,524.11,408.14,522.85,406.88,521.18z M434.84,479.99c0.5,0.5,1.01,1,1.51,1.49
		c2.17-1.37,4.35-2.73,6.52-4.1c-0.06-0.43-0.12-0.87-0.19-1.3c-1.7-0.13-3.69-0.86-5-0.21
		C436.38,476.53,435.76,478.56,434.84,479.99z M404.27,561.67c-3.91,0.19-8.07,3.65-7.06,6.25c0.74,0.33,1.61,0.72,1.57,0.7
		c1.77-1.17,2.84-1.88,3.91-2.59c-0.21-0.06-0.41-0.12-0.62-0.19C402.77,564.52,403.47,563.19,404.27,561.67z M370.32,542.07
		c2.11,0,3.31,0.22,4.38-0.06c0.95-0.25,1.96-0.9,2.57-1.67c0.37-0.47,0.32-1.97-0.03-2.18c-0.99-0.59-2.78-1.39-3.28-0.96
		C372.57,538.37,371.69,540.13,370.32,542.07z M431.37,440.09c-1.15,2.71-1.84,4.35-2.53,5.98c0.36,0.34,0.71,0.68,1.07,1.03
		c1.52-0.99,3.03-1.98,4.55-2.97C433.61,443.02,432.76,441.92,431.37,440.09z M417.58,464.44c-0.18-1.02-0.35-1.94-0.63-3.5
		c-1.3,3.56-2.36,6.45-3.42,9.33c0.27,0.17,0.55,0.34,0.82,0.51c1.86-2.22,3.72-4.45,5.58-6.67c-0.22-0.2-0.45-0.39-0.67-0.59
		C418.76,463.81,418.25,464.08,417.58,464.44z M401.75,552.37c-1.8-0.77-2.92-1.25-4.05-1.73c-0.42,1.47-0.85,2.95-1.27,4.42
		c0.35,0.19,0.69,0.37,1.04,0.56C398.63,554.74,399.79,553.87,401.75,552.37z M367.67,551.01c0.27-2.79,0.54-5.57,0.85-8.81
		C363.4,545.04,366.93,548.14,367.67,551.01z M455.1,463.26c0.05-0.32,0.1-0.63,0.14-0.95c-2.38-0.15-4.77-0.38-7.14-0.32
		c-0.24,0.01-0.44,1.75-0.67,2.73C450.39,464.17,452.74,463.72,455.1,463.26z M466.32,496.19c1.94-1.84,3.37-3.2,4.81-4.56
		c-0.33-0.34-0.65-0.69-0.98-1.03C467.28,490.43,465.8,491.69,466.32,496.19z M375.01,586.95c1.56-1.98,2.69-3.42,4.1-5.21
		C374.23,581.39,373.76,581.98,375.01,586.95z"/>
	<path class="st0" d="M563.1,723.94c8.6,4.05,17.23,8.41,26.1,12.16c5.24,2.22,10.8,3.94,16.38,5.04
		c6.21,1.23,11.88-0.84,16.67-5.07c0.81-0.71,1.66-1.37,2.55-2.1c0.37,0.64,0.66,0.94,0.6,1.07c-4.17,8.46-14.86,14.05-23.9,11.84
		c-4.89-1.19-9.66-3.22-14.16-5.52c-5.34-2.73-10.32-6.16-15.45-9.3c-5.62-3.44-11.5-5.97-18.12-7.03
		c-11.6-1.86-17.56-8.2-19.55-19.82c-1.45-8.47-0.61-16.72,2.72-24.61c4.61-10.94,13.81-16.33,24.9-14.88
		c10.04,1.31,17.44,8.69,18.53,20.32c0.63,6.76-0.04,13.88-1.54,20.53C576.82,715.51,571.51,720.48,563.1,723.94z M574.77,695.8
		c-0.83-7.1-1.57-13.83-5.33-19.8c-6.17-9.81-19.43-9.72-24.5,0.63c-5.91,12.08-5.88,24.74-0.18,37.04
		c2.43,5.24,6.94,8.15,12.85,8.11c6.11-0.04,10.7-3.18,12.74-8.74C572.38,707.5,573.34,701.57,574.77,695.8z"/>
	<path class="st0" d="M680.44,706.11c-2.52,4.13-4.32,7.95-6.92,11.09c-2.18,2.63-5.01,5.1-8.08,6.57
		c-8.42,4.02-17.42-0.01-18.47-9.19c-1.08-9.5-0.14-19.23,0.09-28.86c0.08-3.25,0.81-6.48,1.08-9.74c0.41-4.81-0.37-5.57-5.09-5.47
		c-1.01,0.02-2.02-0.11-3.09-0.9c4.11-2.03,8.38-3.49,12.8-2.17c1.05,0.31,1.96,3.23,1.86,4.88c-0.46,7.3-1.57,14.56-1.96,21.86
		c-0.3,5.71-0.48,11.54,0.33,17.17c1.23,8.52,8.36,11.24,15.34,6.15c7.13-5.21,10.1-12.97,11.2-21.27
		c1.08-8.14,1.2-16.41,1.71-24.62c0.31-4.95,1.67-5.83,6.68-4.09c-0.49,9.2-1.08,18.43-1.46,27.68c-0.23,5.61-0.35,11.25-0.15,16.86
		c0.3,8.43,1.36,9.21,9.51,8.11c0.12,0.21,0.42,0.51,0.36,0.63c-1.18,2.36-7.32,4.57-10.97,3.99c-3.61-0.57-4.56-3.3-4.73-6.29
		C680.27,714.61,680.44,710.68,680.44,706.11z"/>
	<path class="st0" d="M436.74,692.25c8.74,0,17.17,0,25.91,0c0.37-7.05,0.73-13.8,1.07-20.55c0.26-5.14,1.88-6.13,6.47-4.1
		c-0.46,13.39-0.93,26.7-1.38,40.01c-0.04,1.31-0.03,2.62,0,3.92c0.2,8.57,1.24,9.52,9.67,8.71c0.07,0.48,0.25,1.38,0.2,1.39
		c-4.07,1.04-8.14,2.47-12.26,2.66c-1.11,0.05-3.26-3.6-3.44-5.68c-0.52-6.1-0.28-12.27-0.34-18.42c-0.01-1.41,0-2.81,0-4.22
		c-8.76,0-17.2,0-26.45,0c0,9.36,0,18.31,0,27.56c-2.6,0.46-4.46,0.78-6.89,1.21c0-2.22-0.04-4.1,0.01-5.97
		c0.38-13.59,0.84-27.19,1.14-40.78c0.16-7.06,0.03-7.06-6.9-7.39c-0.45-0.02-0.88-0.33-1.39-0.54c2.14-2.64,11.12-4.34,13.22-2.35
		c0.98,0.93,1.56,2.74,1.58,4.16c0.08,5.49-0.13,10.98-0.23,16.47C436.72,689.62,436.74,690.89,436.74,692.25z"/>
	<path class="st0" d="M635.19,693.18c-0.02,7.04-1.35,13.75-4.82,19.95c-4.81,8.6-13.28,13.12-22.4,11.99
		c-9.98-1.24-16.44-6.86-18.95-17.11c-2.55-10.38-1.57-20.53,3.44-30.05c5.36-10.17,15.49-14.5,26.42-11.6
		c9.04,2.4,15.02,10.18,16.02,20.96C635.08,689.26,635.1,691.22,635.19,693.18z M628.91,695.72c-0.8-6.95-1.52-13.54-5.12-19.44
		c-6.23-10.23-19.74-10.05-24.88,0.75c-5.58,11.74-5.55,24.02-0.3,36c2.45,5.58,6.98,8.8,13.24,8.75
		c6.29-0.05,10.85-3.41,12.87-9.14C626.66,707.19,627.56,701.38,628.91,695.72z"/>
	<path class="st0" d="M527.61,693.17c-0.02,7.04-1.35,13.76-4.81,19.95c-4.81,8.6-13.28,13.13-22.4,12
		c-9.98-1.23-16.44-6.85-18.96-17.1c-2.58-10.52-1.57-20.8,3.61-30.39c5.36-9.93,15.45-14.12,26.23-11.27
		c9.05,2.39,15.02,10.17,16.03,20.95C527.49,689.25,527.51,691.21,527.61,693.17z M521.36,695.62c-0.84-6.96-1.59-13.55-5.21-19.43
		c-6.18-10.04-19.56-9.96-24.69,0.6c-5.82,11.98-5.74,24.5-0.19,36.69c2.46,5.41,7.04,8.4,13.12,8.3c6.12-0.1,10.64-3.32,12.64-8.89
		C519.02,707.33,519.95,701.39,521.36,695.62z"/>
	<path class="st0" d="M384.4,721.55c-1.8,0.89-2.7,1.4-3.66,1.79c-8.14,3.29-11.54,1.9-14.38-6.33c-1.73-5.03-2.99-10.22-4.4-15.15
		c-5.59,0-11.06-0.11-16.52,0.12c-0.85,0.04-1.98,1.48-2.38,2.51c-1.98,5.11-3.95,10.24-5.55,15.48c-1.24,4.06-3.56,5.53-8.09,4.31
		c2.1-4.63,4.14-9.21,6.24-13.76c6.03-13.03,12.09-26.04,18.15-39.06c0.44-0.95,0.73-2.2,1.49-2.71c1.4-0.93,3.1-1.9,4.66-1.87
		c0.86,0.02,2.17,1.93,2.44,3.17c2.72,12.5,5.22,25.06,7.89,37.57c0.49,2.28,1.31,4.52,2.19,6.69c2.19,5.4,3.34,6.05,9.38,5.98
		C382.45,720.29,383.04,720.86,384.4,721.55z M345.38,697.95c5.71,0,10.68,0,15.9,0c-1.57-8.47-3.06-16.46-4.54-24.46
		c-0.26-0.07-0.53-0.14-0.79-0.21C352.46,681.41,348.98,689.54,345.38,697.95z"/>
	<path class="st0" d="M694.87,670.28c2.9-2.65,11.2-4.51,13.29-2.87c1.25,0.99,2.11,3.28,2.08,4.96
		c-0.23,12.93-0.71,25.86-1.14,38.79c-0.1,2.96-0.32,5.91-0.47,8.78c5.7,0,10.91,0,16.11,0c4.83,0,6.4-1.31,7.5-6.14
		c0.28-1.23,0.74-2.41,1.77-3.48c1.25,4.25,1.04,8.35-1.21,12.1c-1.78,2.97-4.81,2.52-7.74,2.32c-7.6-0.52-15.21-0.9-22.71-1.34
		c0.45-12.92,0.94-26.59,1.39-40.26c0.08-2.48,0.08-4.97,0.04-7.45c-0.09-4.74-0.68-5.25-5.6-5.18
		C697.3,670.53,696.45,670.4,694.87,670.28z"/>
	<path class="st0" d="M394.83,719.94c5.34,0,10.53-0.01,15.73,0c4.86,0.01,6.43-1.29,7.55-6.1c0.29-1.26,0.83-2.46,1.86-3.5
		c1.09,4.29,1.15,8.54-1.39,11.94c-1.14,1.53-3.98,2.47-6.05,2.47c-4.15,0-8.29-1.1-12.45-1.22c-3.99-0.12-7.99,0.41-11.9,0.64
		c0.48-13.66,0.96-27.32,1.42-40.98c0.08-2.48,0.08-4.97,0.04-7.45c-0.08-4.77-0.69-5.31-5.56-5.23c-0.87,0.01-1.73-0.1-3.6-0.22
		c1.25-1.08,1.75-1.75,2.42-2.02c0.95-0.39,2.02-0.49,3.04-0.71c9.21-1.96,10.47-1.05,10.23,8.28c-0.32,12.41-0.89,24.81-1.33,37.21
		C394.76,715.38,394.83,717.7,394.83,719.94z"/>
	<path class="st0" d="M748.58,684.52c-7.23-0.02-14.68-7.34-14.53-14.27c0.15-6.84,7.5-13.95,14.48-14.03
		c7.58-0.08,14.34,6.6,14.35,14.18C762.9,678.09,756.37,684.54,748.58,684.52z M748.74,680.47c5.39-0.03,9.91-4.56,9.97-9.98
		c0.06-5.48-4.76-10.25-10.25-10.11c-5.42,0.13-9.77,4.72-9.67,10.2C738.89,676.17,743.25,680.51,748.74,680.47z"/>
	<path class="st0" d="M777.78,452.71c0.28,1.1,0.56,2.2,0.85,3.31c0.52,3.03,0.69,6.17,1.62,9.07c1.59,4.93,1.27,6.47-3.37,9.44
		c-0.99-2.91-1.75-5.52,3.42-6.61c-2.07-1.24-3.34-2-4.93-2.96c1.01-0.63,1.86-1.17,2.96-1.86c-0.94-0.39-1.72-0.72-2.81-1.18
		c0.94-0.34,1.66-0.6,2.08-0.76c-0.44-1.3-0.83-2.45-1.22-3.6c0.34-0.13,0.67-0.27,1.01-0.4c-0.83-0.6-1.66-1.2-2.87-2.09
		C775.71,454.21,776.75,453.46,777.78,452.71z"/>
	<path class="st0" d="M445.52,429.61c0.85-2.65,1.23-3.81,1.6-4.96c-1.85,4.66,3.22,4.92,4.98,8.36c-2.41,0.67-5.04,2.27-7.07,1.7
		c-1.92-0.53-3.2-3.34-4.76-5.15c0.31-0.27,0.62-0.55,0.94-0.82c0.73,0.42,1.46,0.84,2.73,1.57c-0.18-1.6-0.3-2.71-0.42-3.83
		c0.29-0.28,0.58-0.56,0.88-0.84C444.69,426.7,444.99,427.77,445.52,429.61z"/>
	<path class="st0" d="M570.02,493.08c-1.28,4.95-4.94,7.77-9.82,7.29C563.74,497.74,566.56,495.65,570.02,493.08z"/>
	<path class="st0" d="M591.41,432.41c-1.65,2.33-3.27,4.69-5,6.97c-0.36,0.47-1.14,0.61-1.73,0.9c-0.19-0.63-0.6-1.28-0.55-1.89
		C584.56,433.95,588.78,434.13,591.41,432.41z"/>
	<path class="st0" d="M683.51,427.63c0.03-2.06,0.15-3.79,3.1-2.5c0.82,0.36,2.11-0.37,3.66-0.71c-0.9,1.54-1.63,2.79-2.27,3.89
		c-1.6-0.2-2.97-0.38-4.35-0.55C683.65,427.77,683.51,427.63,683.51,427.63z"/>
	<path class="st0" d="M566.66,595.86c0,0.47,0,0.93,0,1.4c-0.12,0.09-0.24,0.18-0.35,0.27c-0.41-0.86-0.83-1.72-1.24-2.59
		l-0.08,0.08c0.59,0.31,1.19,0.62,1.78,0.93L566.66,595.86z"/>
	<path class="st0" d="M566.76,595.95c-0.05-0.47-0.09-0.93-0.02-0.25c0.32-0.6,0.12-0.23-0.08,0.15
		C566.66,595.86,566.76,595.95,566.76,595.95z"/>
	<path class="st0" d="M566.66,597.26c0.22,0.35,0.46,0.7,0.64,1.07c0.02,0.05-0.31,0.26-0.47,0.39c-0.17-0.4-0.35-0.8-0.52-1.2
		C566.43,597.44,566.55,597.35,566.66,597.26z"/>
	<path class="st0" d="M565.06,594.94c-0.2-0.07-0.4-0.14-0.6-0.21c0.1-0.1,0.2-0.2,0.3-0.3c0.07,0.2,0.15,0.4,0.22,0.6
		C564.98,595.02,565.06,594.94,565.06,594.94z"/>
	<path class="st0" d="M877.05,584.77c-1.95,1.7-2.31,5.94-6.5,4.08c0.21-1.42,0.42-2.85,0.63-4.27
		C873.03,582.58,875.57,582.66,877.05,584.77z"/>
	<path class="st0" d="M402.38,437.16c-3.41,0.83-6.96,2.4-9.29-1.98c-1.27-2.39-0.16-6.29,2.29-7.43c0.21-0.1,0.73,0.47,1.1,0.73
		c-0.48,1.32-1.26,2.63-1.36,3.98c-0.08,1.09,0.38,2.52,1.13,3.26c0.42,0.41,2.09-0.02,2.91-0.53c4.35-2.65,0.21-4.58-0.68-6.79
		c0.36-0.31,0.71-0.63,1.74-1.54c1.03,3.33,2.01,6.45,2.98,9.57C402.93,436.68,402.65,436.92,402.38,437.16z"/>
	<path class="st0" d="M271.8,535.77c0-5.91,0-11.82,0-17.73c0.15-0.01,0.3-0.03,0.45-0.04c0,5.94,0,11.89,0,17.83
		C272.1,535.81,271.95,535.79,271.8,535.77z"/>
	<path class="st0" d="M704.64,455.17c2.71-5.02,2.84-5.09,8.53-4.24c-0.3,2.6-0.61,5.23-0.96,8.19
		C709.38,457.64,707.11,456.45,704.64,455.17z"/>
	<path class="st0" d="M501.58,580.16c-2.67,6.78-8.53,8.2-14.84,3.59c0.13-0.32,0.26-0.63,0.39-0.95c1.61,0.83,3.22,1.66,4.92,2.54
		c-0.23-2.98-0.21-2.87,2.29-3.15c1.67-0.19,3.29-0.75,4.77-1.11c-0.22-0.19-0.9-0.78-1.58-1.36c0.09-0.18,0.18-0.36,0.27-0.54
		c1.3,0.35,2.6,0.69,3.9,1.04L501.58,580.16z"/>
	<path class="st0" d="M501.69,580.23c-1.04-1.13-2.72-1.8-2.39-3.9c0.06-0.37-1.3-0.96-2.16-1.55c0.39-0.79,0.89-1.81,1.6-3.26
		c2.21,2.69,4.68,4.88,2.83,8.64C501.58,580.16,501.69,580.23,501.69,580.23z"/>
	<path class="st0" d="M456.05,568.8c-0.48-6.01,4.4-2.21,6.43-3.73C462.91,571.08,459.3,569.61,456.05,568.8z"/>
	<path class="st0" d="M472.89,594.04c-4.13-2.94-4.82-4.75-2.23-7.52c0.96-1.03,2.94-1.77,4.3-1.58c1.2,0.17,2.85,1.68,3.09,2.85
		c0.22,1.08-0.98,2.63-1.87,3.73C475.42,592.46,474.23,593.04,472.89,594.04z"/>
</g>
<rect x="743.79" y="662.97" class="st1" width="44.92" height="39.42"/>
<text transform="matrix(1 0 0 1 743.7871 677.0908)" class="st0 st2 st3">R</text>
</svg>
